<svg xmlns="http://www.w3.org/2000/svg" viewBox="0 0 54.83 39.65"><defs><style>.cls-1{fill:#6f2c91;}.cls-2,.cls-3{fill:none;stroke-linecap:round;stroke-linejoin:round;stroke-width:4.21px;}.cls-2{stroke:#6f2c91;}.cls-3{stroke:#15173f;opacity:0.3;isolation:isolate;}.cls-4{fill:#fff;}</style></defs><g id="Layer_2" data-name="Layer 2"><g id="Layer_1-2" data-name="Layer 1"><g id="Group_11337" data-name="Group 11337"><ellipse id="Ellipse_270" data-name="Ellipse 270" class="cls-1" cx="12.41" cy="29.54" rx="10.08" ry="10.11"/><path id="Path_10332" data-name="Path 10332" class="cls-2" d="M29.44,31.63H27a14.65,14.65,0,0,0-7.34-12.7,2.64,2.64,0,0,1-1-3.61,3.28,3.28,0,0,1,.2-.31l5.52-7.13A2.62,2.62,0,0,1,28,7.38l3.41,2.53a14.77,14.77,0,0,0,8.78,2.9h5.22"/><ellipse id="Ellipse_271" data-name="Ellipse 271" class="cls-1" cx="44.74" cy="29.54" rx="10.08" ry="10.11"/><line id="Line_196" data-name="Line 196" class="cls-3" x1="45.45" y1="30.25" x2="41.63" y2="14.92"/><ellipse id="Ellipse_272" data-name="Ellipse 272" class="cls-4" cx="12.41" cy="29.54" rx="2.09" ry="2.09"/><ellipse id="Ellipse_273" data-name="Ellipse 273" class="cls-1" cx="34.23" cy="3.33" rx="3.32" ry="3.33"/><line id="Line_197" data-name="Line 197" class="cls-3" x1="4.73" y1="16.36" x2="10.42" y2="16.36"/><line id="Line_198" data-name="Line 198" class="cls-3" x1="10.42" y1="9.77" x2="16.11" y2="9.77"/><line id="Line_199" data-name="Line 199" class="cls-3" x1="2.11" y1="9.77" x2="3.86" y2="9.77"/><line id="Line_200" data-name="Line 200" class="cls-3" x1="20.04" y1="2.75" x2="8.67" y2="2.75"/><path id="Path_10333" data-name="Path 10333" class="cls-1" d="M27.29,6.65,25,7.29l-4,4.94-2.91,3.82.63,2,3.74,3,9.74-11Z"/></g></g></g></svg>