<svg xmlns="http://www.w3.org/2000/svg" viewBox="0 0 100.39 73.92"><defs><style>.cls-1{fill:#2896e0;}.cls-2,.cls-3{fill:none;stroke-linecap:round;stroke-linejoin:round;stroke-width:4.21px;}.cls-2{stroke:#2896e0;}.cls-3{stroke:#15173f;opacity:0.3;isolation:isolate;}.cls-4{fill:#fff;}</style></defs><g id="Layer_2" data-name="Layer 2"><g id="Layer_1-2" data-name="Layer 1"><g id="Group_11325" data-name="Group 11325"><ellipse id="Ellipse_270" data-name="Ellipse 270" class="cls-1" cx="21.31" cy="55.08" rx="18.8" ry="18.84"/><path id="Path_10332" data-name="Path 10332" class="cls-2" d="M53.07,59H48.53A27.28,27.28,0,0,0,34.85,35.29,4.94,4.94,0,0,1,33,28.56a4.35,4.35,0,0,1,.38-.57L43.66,14.68a4.88,4.88,0,0,1,6.77-.94l6.37,4.73a27.47,27.47,0,0,0,16.36,5.41h9.73"/><ellipse id="Ellipse_271" data-name="Ellipse 271" class="cls-1" cx="81.59" cy="55.08" rx="18.8" ry="18.84"/><line id="Line_196" data-name="Line 196" class="cls-3" x1="82.92" y1="56.4" x2="75.79" y2="27.82"/><ellipse id="Ellipse_272" data-name="Ellipse 272" class="cls-4" cx="21.31" cy="55.08" rx="3.89" ry="3.9"/><ellipse id="Ellipse_273" data-name="Ellipse 273" class="cls-1" cx="61.99" cy="6.2" rx="6.19" ry="6.2"/><line id="Line_197" data-name="Line 197" class="cls-3" x1="7" y1="30.51" x2="17.6" y2="30.51"/><line id="Line_198" data-name="Line 198" class="cls-3" x1="17.6" y1="18.22" x2="28.21" y2="18.22"/><line id="Line_199" data-name="Line 199" class="cls-3" x1="2.11" y1="18.22" x2="5.37" y2="18.22"/><line id="Line_200" data-name="Line 200" class="cls-3" x1="35.55" y1="5.12" x2="14.34" y2="5.12"/><path id="Path_10333" data-name="Path 10333" class="cls-1" d="M49.06,12.4l-4.22,1.19L37.38,22.8,32,29.91l1.18,3.76,7,5.56L58.27,18.78Z"/></g></g></g></svg>