<svg xmlns="http://www.w3.org/2000/svg" xmlns:xlink="http://www.w3.org/1999/xlink" viewBox="0 0 95.04 77.54"><defs><style>.cls-1,.cls-6{fill:none;}.cls-2{fill:#8dc63f;}.cls-3{fill:#15173f;isolation:isolate;}.cls-3,.cls-4{opacity:0.3;}.cls-5{clip-path:url(#clip-path);}.cls-6{stroke:#fff;stroke-linecap:round;stroke-linejoin:round;stroke-width:3px;}.cls-7{clip-path:url(#clip-path-2);}</style><clipPath id="clip-path"><rect class="cls-1" x="75.43" y="10.81" width="3.17" height="66.81"/></clipPath><clipPath id="clip-path-2"><rect class="cls-1" x="16.44" y="10.81" width="3.17" height="66.81"/></clipPath></defs><g id="Layer_2" data-name="Layer 2"><g id="Layer_1-2" data-name="Layer 1"><g id="Group_11321" data-name="Group 11321"><rect id="Rectangle_1116" data-name="Rectangle 1116" class="cls-2" y="12.4" width="95.04" height="63.63" rx="0.66"/><path id="Path_7290" data-name="Path 7290" class="cls-3" d="M90.12,70.25H4.92a4.94,4.94,0,0,1-4.92-5H0v5.79a4.94,4.94,0,0,0,4.92,5h85.2a4.94,4.94,0,0,0,4.92-5h0V65.29a4.94,4.94,0,0,1-4.92,5"/><path id="Path_7292" data-name="Path 7292" class="cls-3" d="M56.69,0H38.34A4.74,4.74,0,0,0,33.6,4.75h0V12.4H61.45V4.76A4.76,4.76,0,0,0,56.7,0Z"/><g id="Group_10729" data-name="Group 10729" class="cls-4"><g id="Group_10728" data-name="Group 10728"><g class="cls-5"><g id="Group_10727" data-name="Group 10727"><line id="Line_170" data-name="Line 170" class="cls-6" x1="77.02" y1="76.04" x2="77.02" y2="12.4"/></g></g></g></g><g id="Group_10732" data-name="Group 10732" class="cls-4"><g id="Group_10731" data-name="Group 10731"><g class="cls-7"><g id="Group_10730" data-name="Group 10730"><line id="Line_171" data-name="Line 171" class="cls-6" x1="18.03" y1="12.4" x2="18.03" y2="76.04"/></g></g></g></g></g></g></g></svg>