<svg xmlns="http://www.w3.org/2000/svg" viewBox="0 0 58.61 77.99"><defs><style>.cls-1,.cls-5{fill:none;stroke-linecap:round;stroke-linejoin:round;}.cls-1{stroke:#a6b0c1;stroke-width:0.75px;}.cls-2{fill:#f89509;}.cls-3{fill:#a3238e;}.cls-4{fill:#fff;}.cls-5{stroke:#fff;stroke-width:3px;}</style></defs><g id="Layer_2" data-name="Layer 2"><g id="Layer_1-2" data-name="Layer 1"><g id="Group_11320" data-name="Group 11320"><path id="Path_7286" data-name="Path 7286" class="cls-1" d="M12.17,58.08h0a4.35,4.35,0,0,0-4.35,4.36V77.62h8.71V62.44a4.36,4.36,0,0,0-4.36-4.36Z"/><path id="Path_7287" data-name="Path 7287" class="cls-1" d="M47,58.08h0a4.36,4.36,0,0,0-4.36,4.36V77.62H51.4V62.44A4.36,4.36,0,0,0,47,58.08Z"/><path id="Path_7288" data-name="Path 7288" class="cls-2" d="M29.36,58.08a6.93,6.93,0,0,0-6.88,7V77.62H36.24V65.09a6.93,6.93,0,0,0-6.88-7"/><rect id="Rectangle_1113" data-name="Rectangle 1113" class="cls-3" y="10.12" width="58.61" height="67.49"/><rect id="Rectangle_1114" data-name="Rectangle 1114" class="cls-3" x="9.57" width="39.47" height="10.66"/><path id="Path_7289" data-name="Path 7289" class="cls-4" d="M29.36,58.08a6.93,6.93,0,0,0-6.88,7V77.62H36.24V65.09A6.93,6.93,0,0,0,29.36,58.08Z"/><line id="Line_151" data-name="Line 151" class="cls-5" x1="33.96" y1="31.77" x2="33.96" y2="36.26"/><line id="Line_152" data-name="Line 152" class="cls-5" x1="25.25" y1="36.26" x2="25.25" y2="31.77"/><line id="Line_153" data-name="Line 153" class="cls-5" x1="33.96" y1="19" x2="33.96" y2="23.13"/><line id="Line_154" data-name="Line 154" class="cls-5" x1="25.25" y1="23.13" x2="25.25" y2="19"/><line id="Line_155" data-name="Line 155" class="cls-5" x1="51.4" y1="31.77" x2="51.4" y2="36.26"/><line id="Line_156" data-name="Line 156" class="cls-5" x1="42.68" y1="36.26" x2="42.68" y2="31.77"/><line id="Line_157" data-name="Line 157" class="cls-5" x1="51.4" y1="19" x2="51.4" y2="23.13"/><line id="Line_158" data-name="Line 158" class="cls-5" x1="42.68" y1="23.13" x2="42.68" y2="19"/><line id="Line_159" data-name="Line 159" class="cls-5" x1="16.53" y1="31.77" x2="16.53" y2="36.26"/><line id="Line_160" data-name="Line 160" class="cls-5" x1="7.82" y1="36.26" x2="7.82" y2="31.77"/><line id="Line_161" data-name="Line 161" class="cls-5" x1="33.96" y1="45.11" x2="33.96" y2="49.61"/><line id="Line_162" data-name="Line 162" class="cls-5" x1="25.25" y1="49.61" x2="25.25" y2="45.11"/><line id="Line_163" data-name="Line 163" class="cls-5" x1="51.4" y1="45.11" x2="51.4" y2="49.61"/><line id="Line_164" data-name="Line 164" class="cls-5" x1="42.68" y1="49.61" x2="42.68" y2="45.11"/><line id="Line_165" data-name="Line 165" class="cls-5" x1="16.53" y1="45.11" x2="16.53" y2="49.61"/><line id="Line_166" data-name="Line 166" class="cls-5" x1="7.82" y1="49.61" x2="7.82" y2="45.11"/><line id="Line_167" data-name="Line 167" class="cls-5" x1="16.53" y1="19" x2="16.53" y2="23.13"/><line id="Line_168" data-name="Line 168" class="cls-5" x1="7.82" y1="23.13" x2="7.82" y2="19"/></g></g></g></svg>