<svg xmlns="http://www.w3.org/2000/svg" viewBox="0 0 30.47 40.73"><defs><style>.cls-1,.cls-5{fill:none;stroke-linecap:round;stroke-linejoin:round;}.cls-1{stroke:#a6b0c1;stroke-width:0.75px;}.cls-2{fill:#f89509;}.cls-3{fill:#6f2c91;}.cls-4{fill:#fff;}.cls-5{stroke:#fff;stroke-width:3px;}</style></defs><g id="Layer_2" data-name="Layer 2"><g id="Layer_1-2" data-name="Layer 1"><g id="Group_11338" data-name="Group 11338"><path id="Path_7286" data-name="Path 7286" class="cls-1" d="M6.33,30.19h0a2.27,2.27,0,0,0-2.27,2.27v7.89H8.59V32.46A2.27,2.27,0,0,0,6.33,30.19Z"/><path id="Path_7287" data-name="Path 7287" class="cls-1" d="M24.45,30.19h0a2.27,2.27,0,0,0-2.26,2.27v7.89h4.53V32.46A2.27,2.27,0,0,0,24.45,30.19Z"/><path id="Path_7288" data-name="Path 7288" class="cls-2" d="M15.26,30.19a3.62,3.62,0,0,0-3.58,3.65v6.51h7.16V33.84a3.61,3.61,0,0,0-3.58-3.65"/><rect id="Rectangle_1113" data-name="Rectangle 1113" class="cls-3" y="5.26" width="30.47" height="35.09"/><rect id="Rectangle_1114" data-name="Rectangle 1114" class="cls-3" x="4.97" width="20.52" height="5.54"/><path id="Path_7289" data-name="Path 7289" class="cls-4" d="M15.26,30.19a3.62,3.62,0,0,0-3.58,3.65v6.51h7.16V33.84A3.61,3.61,0,0,0,15.26,30.19Z"/><line id="Line_151" data-name="Line 151" class="cls-5" x1="17.66" y1="16.51" x2="17.66" y2="18.85"/><line id="Line_152" data-name="Line 152" class="cls-5" x1="13.13" y1="18.85" x2="13.13" y2="16.51"/><line id="Line_153" data-name="Line 153" class="cls-5" x1="17.66" y1="9.88" x2="17.66" y2="12.02"/><line id="Line_154" data-name="Line 154" class="cls-5" x1="13.13" y1="12.02" x2="13.13" y2="9.88"/><line id="Line_155" data-name="Line 155" class="cls-5" x1="26.72" y1="16.51" x2="26.72" y2="18.85"/><line id="Line_156" data-name="Line 156" class="cls-5" x1="22.19" y1="18.85" x2="22.19" y2="16.51"/><line id="Line_157" data-name="Line 157" class="cls-5" x1="26.72" y1="9.88" x2="26.72" y2="12.02"/><line id="Line_158" data-name="Line 158" class="cls-5" x1="22.19" y1="12.02" x2="22.19" y2="9.88"/><line id="Line_159" data-name="Line 159" class="cls-5" x1="8.59" y1="16.51" x2="8.59" y2="18.85"/><line id="Line_160" data-name="Line 160" class="cls-5" x1="4.06" y1="18.85" x2="4.06" y2="16.51"/><line id="Line_161" data-name="Line 161" class="cls-5" x1="17.66" y1="23.45" x2="17.66" y2="25.79"/><line id="Line_162" data-name="Line 162" class="cls-5" x1="13.13" y1="25.79" x2="13.13" y2="23.45"/><line id="Line_163" data-name="Line 163" class="cls-5" x1="26.72" y1="23.45" x2="26.72" y2="25.79"/><line id="Line_164" data-name="Line 164" class="cls-5" x1="22.19" y1="25.79" x2="22.19" y2="23.45"/><line id="Line_165" data-name="Line 165" class="cls-5" x1="8.59" y1="23.45" x2="8.59" y2="25.79"/><line id="Line_166" data-name="Line 166" class="cls-5" x1="4.06" y1="25.79" x2="4.06" y2="23.45"/><line id="Line_167" data-name="Line 167" class="cls-5" x1="8.59" y1="9.88" x2="8.59" y2="12.02"/><line id="Line_168" data-name="Line 168" class="cls-5" x1="4.06" y1="12.02" x2="4.06" y2="9.88"/></g></g></g></svg>