<svg xmlns="http://www.w3.org/2000/svg" width="152" height="152" viewBox="0 0 152 152"><g transform="translate(-885 -234)"><circle cx="76" cy="76" r="76" transform="translate(885 234)" fill="rgba(252,175,23,0.15)"/><g transform="translate(658.549 127.008)"><g transform="translate(279.412 140.992)"><path d="M322.325,165.422v24.74h-6.991v-24.74c0-9.407-7.146-17.058-15.937-17.058s-15.936,7.651-15.936,17.058v24.74H276.47v-24.74c0-13.475,10.284-24.43,22.927-24.43S322.325,151.948,322.325,165.422Z" transform="translate(-276.47 -140.992)" fill="#fff" stroke="#383838" stroke-width="1"/></g><rect width="63.776" height="49.859" transform="translate(270.451 176.075)" fill="#fcaf17" stroke="#383838" stroke-width="1"/><path d="M293.908,185.685l1.863,8.836h-7.905l1.863-8.836a3.953,3.953,0,1,1,4.18,0Z" transform="translate(10.223 14.547)" fill="#383838"/></g><g transform="translate(-6 -1)"><g transform="translate(985 342)" fill="#fff" stroke="#383838" stroke-width="0.5"><circle cx="8" cy="8" r="8" stroke="none"/><circle cx="8" cy="8" r="7.75" fill="none"/></g><text transform="matrix(-1, 0, 0, 1, 997, 340)" fill="#fcaf17" font-size="14" font-family="SegoeUI-Bold, Segoe UI" font-weight="700" letter-spacing="0.02em"><tspan x="0" y="15">؟</tspan></text></g></g></svg>