<svg xmlns="http://www.w3.org/2000/svg" xmlns:xlink="http://www.w3.org/1999/xlink" viewBox="0 0 718.05 692.68"><defs><style>.cls-1{fill:url(#linear-gradient);}.cls-2{fill:#fff;}.cls-3{fill:url(#linear-gradient-2);}.cls-4{fill:url(#linear-gradient-3);}.cls-5{fill:url(#linear-gradient-4);}.cls-15,.cls-24,.cls-6,.cls-8{fill:none;}.cls-6{stroke:#1d325f;stroke-width:1.91px;stroke-dasharray:5.72;}.cls-15,.cls-22,.cls-30,.cls-6,.cls-8{stroke-miterlimit:10;}.cls-7{fill:url(#linear-gradient-5);}.cls-15,.cls-22,.cls-24,.cls-25,.cls-27,.cls-30,.cls-35,.cls-36,.cls-8{stroke:#00030e;}.cls-21,.cls-23,.cls-24,.cls-25,.cls-27,.cls-30,.cls-35,.cls-36,.cls-8{stroke-linecap:round;}.cls-15,.cls-21,.cls-22,.cls-24,.cls-25,.cls-27,.cls-30,.cls-35,.cls-36,.cls-8{stroke-width:0.48px;}.cls-9{fill:#cfdeff;}.cls-10,.cls-11{isolation:isolate;}.cls-11{font-size:17.16px;font-family:OpenSans-Bold, Open Sans;font-weight:700;}.cls-11,.cls-19{fill:#42445d;}.cls-12{fill:url(#linear-gradient-6);}.cls-13{fill:url(#linear-gradient-7);}.cls-14{fill:url(#linear-gradient-8);}.cls-16{fill:url(#linear-gradient-9);}.cls-17{fill:url(#linear-gradient-10);}.cls-18{fill:url(#linear-gradient-11);}.cls-20{fill:url(#linear-gradient-12);}.cls-21,.cls-23{fill:#f4b7bc;stroke:#f4b7bc;}.cls-21,.cls-23,.cls-24,.cls-25,.cls-27,.cls-35,.cls-36{stroke-linejoin:round;}.cls-22,.cls-27,.cls-30{fill:#00030e;}.cls-23{stroke-width:0.48px;}.cls-25{fill:url(#linear-gradient-13);}.cls-26{fill:url(#linear-gradient-14);}.cls-28{fill:url(#linear-gradient-15);}.cls-29{fill:url(#linear-gradient-16);}.cls-31{fill:url(#linear-gradient-17);}.cls-32{fill:url(#linear-gradient-18);}.cls-33{fill:url(#linear-gradient-19);}.cls-34{fill:url(#linear-gradient-20);}.cls-35{fill:url(#linear-gradient-21);}.cls-36{fill:url(#linear-gradient-22);}.cls-37{fill:#fcaf17;}.cls-38{fill:url(#linear-gradient-23);}</style><linearGradient id="linear-gradient" x1="-37.48" y1="693.41" x2="-37.48" y2="691.18" gradientTransform="matrix(53.8, 0, 0, -107.68, 2321.47, 75105.78)" gradientUnits="userSpaceOnUse"><stop offset="0" stop-color="#c6d9fa"/><stop offset="1" stop-color="#fefefe"/></linearGradient><linearGradient id="linear-gradient-2" x1="-40.81" y1="692.78" x2="-40.81" y2="689.86" gradientTransform="matrix(46.5, 0, 0, -82.24, 1980.47, 57412.69)" xlink:href="#linear-gradient"/><linearGradient id="linear-gradient-3" x1="-34.81" y1="693.18" x2="-34.81" y2="690.69" gradientTransform="matrix(48.28, 0, 0, -96.54, 2335.16, 67358.41)" xlink:href="#linear-gradient"/><linearGradient id="linear-gradient-4" x1="-35.91" y1="692.67" x2="-35.91" y2="689.62" gradientTransform="matrix(43.45, 0, 0, -78.84, 2155.47, 55045.33)" xlink:href="#linear-gradient"/><linearGradient id="linear-gradient-5" x1="-37.55" y1="692.84" x2="-35.64" y2="692.84" gradientTransform="matrix(66.93, 0, 0, -72.89, 2692.54, 50679.61)" gradientUnits="userSpaceOnUse"><stop offset="0" stop-color="#6f2c91"/><stop offset="1" stop-color="#0e55cb"/></linearGradient><linearGradient id="linear-gradient-6" x1="-78.38" y1="653.22" x2="-76.47" y2="653.22" gradientTransform="matrix(4.71, 0, 0, -4.67, 970.32, 3171.86)" gradientUnits="userSpaceOnUse"><stop offset="0" stop-color="#13469f"/><stop offset="1" stop-color="#0e55cb"/></linearGradient><linearGradient id="linear-gradient-7" x1="-78.38" y1="650.37" x2="-76.47" y2="650.37" gradientTransform="matrix(4.71, 0, 0, -4.67, 970.32, 3187.28)" xlink:href="#linear-gradient-6"/><linearGradient id="linear-gradient-8" x1="-78.38" y1="647.52" x2="-76.47" y2="647.52" gradientTransform="matrix(4.71, 0, 0, -4.67, 970.32, 3201.99)" xlink:href="#linear-gradient-6"/><linearGradient id="linear-gradient-9" x1="-33.34" y1="678.65" x2="-31.43" y2="678.65" gradientTransform="matrix(157.84, 0, 0, -18.83, 5631.96, 13165.42)" xlink:href="#linear-gradient-5"/><linearGradient id="linear-gradient-10" x1="-45.98" y1="669.03" x2="-44.07" y2="669.03" gradientTransform="matrix(19.7, 0, 0, -13.77, 1363.1, 9698.35)" xlink:href="#linear-gradient-5"/><linearGradient id="linear-gradient-11" x1="-43.83" y1="667.77" x2="-41.93" y2="667.77" gradientTransform="matrix(19.7, 0, 0, -13.77, 1409.7, 9717.63)" xlink:href="#linear-gradient-5"/><linearGradient id="linear-gradient-12" x1="-32.53" y1="696.56" x2="-32.53" y2="698.46" gradientTransform="matrix(28.84, -174.11, -174.11, -28.84, 122774.2, 14720.7)" gradientUnits="userSpaceOnUse"><stop offset="0" stop-color="#fefefe"/><stop offset="1" stop-color="#c6d9fa"/></linearGradient><linearGradient id="linear-gradient-13" x1="-45.19" y1="690.9" x2="-46.76" y2="687.26" gradientTransform="matrix(27.58, 0, 0, -32.34, 1444.24, 22478.95)" gradientUnits="userSpaceOnUse"><stop offset="0" stop-color="#1d325f"/><stop offset="1" stop-color="#00030e"/></linearGradient><linearGradient id="linear-gradient-14" x1="-49.83" y1="646.97" x2="-45.91" y2="662.87" gradientTransform="matrix(23.25, 0, 0, -5.74, 1310.68, 3991.15)" gradientUnits="userSpaceOnUse"><stop offset="0" stop-color="#383838"/><stop offset="1" stop-color="#0e55cb"/></linearGradient><linearGradient id="linear-gradient-15" x1="-46.07" y1="691.38" x2="-31.11" y2="697.36" gradientTransform="matrix(32.88, 0, 0, -82.29, 1579.56, 57310.75)" xlink:href="#linear-gradient-14"/><linearGradient id="linear-gradient-16" x1="-37.79" y1="692.15" x2="-30.88" y2="696.76" gradientTransform="matrix(71.19, 0, 0, -106.79, 2793.33, 74370.5)" xlink:href="#linear-gradient-14"/><linearGradient id="linear-gradient-17" x1="-48.6" y1="683.69" x2="-32.46" y2="697.43" gradientTransform="matrix(30.49, 0, 0, -35.83, 1578.31, 24946.36)" xlink:href="#linear-gradient-14"/><linearGradient id="linear-gradient-18" x1="-42.74" y1="684.41" x2="-31.83" y2="697.64" gradientTransform="matrix(45.09, 0, 0, -37.18, 2019.53, 25892.88)" xlink:href="#linear-gradient-14"/><linearGradient id="linear-gradient-19" x1="-45.82" y1="692.41" x2="-28.68" y2="690.63" gradientTransform="matrix(31.45, 0, 0, -111.27, 1558.67, 77596.68)" xlink:href="#linear-gradient-14"/><linearGradient id="linear-gradient-20" x1="-43.5" y1="692.63" x2="-29.54" y2="690.88" gradientTransform="matrix(38.62, 0, 0, -113.24, 1803.83, 78970.84)" xlink:href="#linear-gradient-14"/><linearGradient id="linear-gradient-21" x1="-40.18" y1="676.81" x2="-45.1" y2="649.27" gradientTransform="matrix(28.85, 0, 0, -10.33, 1506.93, 7405.46)" xlink:href="#linear-gradient-13"/><linearGradient id="linear-gradient-22" x1="-46.06" y1="680.75" x2="-53.58" y2="655.78" gradientTransform="matrix(18.91, 0, 0, -11.39, 1168.67, 8142.65)" xlink:href="#linear-gradient-13"/><linearGradient id="linear-gradient-23" x1="-38.66" y1="693.05" x2="-38.66" y2="690.43" gradientTransform="matrix(40.79, 0, 0, -91.55, 1965.19, 63886.69)" xlink:href="#linear-gradient"/></defs><g id="Layer_2" data-name="Layer 2"><g id="Layer_1-2" data-name="Layer 1"><g id="Group_10789" data-name="Group 10789"><g id="Group_10790" data-name="Group 10790"><g id="Group_10787" data-name="Group 10787"><g id="Group_10750" data-name="Group 10750"><path id="Path_10062" data-name="Path 10062" class="cls-1" d="M349.17,598.77a125.1,125.1,0,0,1-24.32,39.62,146,146,0,0,1-15.53,14.72c-2.65,2.16-5.26,4.2-7.87,6.08s-5.26,3.59-7.81,5.19a145.13,145.13,0,0,1-14.43,8,124.09,124.09,0,0,1-11.83,5.16c-6.75,2.58-10.85,3.67-10.85,3.67s-.63-4.3-1.2-11.34c-.25-3.54-.54-7.76-.87-12.49s-.42-9.94-.61-15.56c-.06-2.8-.09-5.67,0-8.59s0-6,.08-9c.25-6.07.44-12.44,1.18-18.75a141.24,141.24,0,0,1,26.68-72.69c3.53-5.29,7.51-10.28,11.25-15.06,1.9-2.39,3.86-4.7,5.78-6.94s3.74-4.42,5.6-6.51c3.78-4.17,7.24-8,10.53-11.48l8.74-9c5-5,8.25-7.86,8.25-7.86s2.42,3.47,5.91,9.81a124.26,124.26,0,0,1,5.68,11.59,143.39,143.39,0,0,1,5.81,15.44c.9,2.86,1.77,5.87,2.6,9s1.44,6.36,2.07,9.72a146,146,0,0,1,2.31,21.27A125,125,0,0,1,349.17,598.77Z"/><g id="Group_10749" data-name="Group 10749"><path id="Path_10063" data-name="Path 10063" class="cls-2" d="M356.21,560.88l.07-2.46c-3.18,1.64-7.28,3.88-11.85,6.67s-9.83,6.06-15,9.88a134.62,134.62,0,0,0-30.31,29c5.46-12.8,10.23-25.89,14.49-39.13a57.28,57.28,0,0,1,3.12-7.77,60.86,60.86,0,0,1,3.85-7.16,92.47,92.47,0,0,1,9.55-12.57,135.93,135.93,0,0,1,10.67-10.39c3.58-3.1,7.16-5.81,10.29-8.15l-.61-2.16C340.35,524,326.87,535.23,318,550.06a471.36,471.36,0,0,0,14.74-72.79L331.9,476h0L330.72,477A468.17,468.17,0,0,1,316,549.49c.34-17.33-7.26-32.78-14.08-42.48l-1.33,1.57a80.15,80.15,0,0,1,6.25,10.76,70.22,70.22,0,0,1,5,13.4A58.84,58.84,0,0,1,314,548a60.26,60.26,0,0,1-.51,8.06,53.84,53.84,0,0,1-1.91,8.1c-4.23,13.19-9,26.21-14.41,39A80.68,80.68,0,0,0,293,562.87a112,112,0,0,0-7-15.4A116.58,116.58,0,0,0,279,536.76l-1.14,1.77A101.26,101.26,0,0,1,293.34,571c3.87,14.35,4.45,31.72-3,47.8-2.34,5.06-4.83,10-7.29,15-2.63,4.91-5.07,9.91-7.85,14.75,4.93-17.66,2.14-35.55-2.38-48.89a102.64,102.64,0,0,0-12-24.54l-.68,2.44a97.3,97.3,0,0,1,6.48,11.86A100.46,100.46,0,0,1,273.61,610c3.6,15.87,3.48,36-7,53.36-3.24,5.53-6.78,10.88-10.24,16.28l.22,1.58,1.5-.44c3.47-5.42,7-10.79,10.28-16.36,10.45-17.31,26.29-29,41.3-37.77a223.24,223.24,0,0,1,20.71-10.48c6-2.67,10.94-4.44,13.56-5.4l1.32-2.76a206.84,206.84,0,0,0-26.9,11.58c-13.45,6.88-29.08,16.44-41.38,30,2.79-4.85,5.25-9.88,7.89-14.82,2.48-5,5-10,7.32-15.1,7.49-16,19.48-28.22,31.71-38A216.41,216.41,0,0,1,356.21,560.88Z"/></g></g><g id="Group_10752" data-name="Group 10752"><path id="Path_10064" data-name="Path 10064" class="cls-3" d="M111.92,596.21a127.77,127.77,0,0,1,7.51,27.47c1,4.56,1.49,9.34,2.25,13.81.34,2.26.6,4.55.88,6.77s.63,4.34.89,6.47c.47,4.3,1.08,8.22,1.53,11.89.21,1.83.42,3.58.61,5.22s.43,3.09.62,4.45c.73,5.48,1,8.94,1,8.94a80.45,80.45,0,0,1-9-1c-1.43-.22-3-.49-4.73-.82s-3.46-.84-5.38-1.38a88.28,88.28,0,0,1-12.62-4.44q-3.36-1.47-7-3.26c-2.33-1.24-4.66-2.65-7.06-4.15A99.36,99.36,0,0,1,67.34,655.4a87.41,87.41,0,0,1-28.61-70.74,99.76,99.76,0,0,1,2.65-17.6c.68-2.75,1.38-5.37,2.18-7.88s1.81-4.92,2.74-7.18a87.41,87.41,0,0,1,6-12c1-1.72,2-3.29,2.9-4.73s2-2.73,2.83-3.87a80.65,80.65,0,0,1,5.81-7s2.2,2.69,5.48,7.14L72,535.23l3.19,4.17c2.22,3,4.51,6.19,7.17,9.61,1.29,1.71,2.58,3.47,3.85,5.27s2.75,3.62,4.08,5.48c2.56,3.74,5.53,7.53,8,11.48A128.4,128.4,0,0,1,111.92,596.21Z"/><g id="Group_10751" data-name="Group 10751"><path id="Path_10065" data-name="Path 10065" class="cls-2" d="M101.05,575.51l-.83-1.3a76.74,76.74,0,0,0-5.77,7.9,74,74,0,0,0-5.75,11.72,54.38,54.38,0,0,0-2.29,31.42A195.28,195.28,0,0,1,74,594.94a41.12,41.12,0,0,1-1.48-6.39,46.43,46.43,0,0,1-.22-6.35,40,40,0,0,1,2.2-11.87,45.34,45.34,0,0,1,4.72-10.07,49.42,49.42,0,0,1,5.68-7.75L84,551.25c-6.19,6.72-13.19,18.33-13.32,32.06a197.22,197.22,0,0,1-6-57.86l-.79-1h0l-.84.91a199.13,199.13,0,0,0,6.1,58.34C62.44,571.83,52.46,562,45.11,555l-.65,1.72c2.26,2.19,4.95,4.67,7.6,7.42s5.23,5.78,7.9,9A94.4,94.4,0,0,1,67.1,583.5a49.25,49.25,0,0,1,2.9,5.76,50.59,50.59,0,0,1,2.45,6.18A195.86,195.86,0,0,0,85,626a144,144,0,0,0-25-22.41c-4.14-3.13-8.3-5.91-12-8.3s-6.82-4.43-9.34-5.93l0,2.07A293.12,293.12,0,0,1,64.47,609,136.71,136.71,0,0,1,79,621.88a66.08,66.08,0,0,1,6.64,7.54,67.07,67.07,0,0,1,5.85,8.5c2.25,3.81,4.71,7.5,7.13,11.21l3.89,5.39c1.27,1.82,2.59,3.6,4,5.3-11.31-9-24.46-15.32-35.73-20.21-5.56-2.44-10.57-4.45-14.55-5.89s-6.64-2.4-7.66-2.7l1.21,2.28c2.12.77,6.23,2.09,11.2,4.05,2.51,1,5.17,2.13,8.12,3.35s6.05,2.58,9.17,4.09c12.73,6,26.31,13.59,37,25.41,3.33,3.87,7,7.36,10.67,10.95l1.23.07L127.1,680c-3.58-3.57-7.29-7-10.59-10.87a50.59,50.59,0,0,1-3.7-4.57,56.92,56.92,0,0,1-2.85-5,45.51,45.51,0,0,1-2.27-5.1c-.59-1.77-1.09-3.53-1.52-5.28s-.77-3.5-1-5.21-.3-3.51-.35-5.22a52.22,52.22,0,0,1,.53-9.84,74.73,74.73,0,0,1,1.87-8.77,63.74,63.74,0,0,1,2.65-7.35,61.1,61.1,0,0,1,4.73-9.21l-.55-1.75a56.37,56.37,0,0,0-3.64,6.19,74.79,74.79,0,0,0-5,13c-2.86,10.41-3.68,24.68,2.42,37.86-1.42-1.69-2.72-3.45-4-5.25L100,648.21c-2.4-3.69-4.85-7.34-7.07-11.13a49.62,49.62,0,0,1-4.15-9.3,58.75,58.75,0,0,1-1.91-9.57,54,54,0,0,1,1.61-18.16,60.46,60.46,0,0,1,5.9-14.71A64,64,0,0,1,101.05,575.51Z"/></g></g><g id="Group_10754" data-name="Group 10754"><path id="Path_10066" data-name="Path 10066" class="cls-4" d="M692.11,598.26a138,138,0,0,1-15.71,30.53c-3,4.73-6.41,9.22-9.56,13.57-1.61,2.17-3.29,4.27-4.91,6.32s-3.17,4.06-4.75,6c-3.22,3.84-6.13,7.43-8.91,10.64l-7.37,8.42c-4.19,4.74-7,7.49-7,7.49a100.9,100.9,0,0,1-5.82-8.48,102.71,102.71,0,0,1-5.67-10.15,117.49,117.49,0,0,1-5.89-13.7q-1.39-3.84-2.69-8.06c-.81-2.81-1.51-5.72-2.18-8.77a123.26,123.26,0,0,1-2.67-19.3,103.79,103.79,0,0,1,28-78.34,124.4,124.4,0,0,1,14.28-13.26c2.44-1.92,4.84-3.73,7.24-5.39s4.85-3.15,7.18-4.55a120.29,120.29,0,0,1,13.24-6.87,99.63,99.63,0,0,1,10.82-4.27,101.78,101.78,0,0,1,9.87-2.88s.4,3.89.66,10.21c.1,3.18.23,7,.38,11.18s.09,8.87.15,13.89c0,2.49,0,5-.12,7.62s-.07,5.31-.19,8c-.31,5.36-.5,11-1.19,16.55A137.84,137.84,0,0,1,692.11,598.26Z"/><g id="Group_10753" data-name="Group 10753"><path id="Path_10067" data-name="Path 10067" class="cls-2" d="M698.56,570.75l.25-1.84a101,101,0,0,0-10.89,3.14,96,96,0,0,0-13.71,6.31,69.11,69.11,0,0,0-26,25.22,330.66,330.66,0,0,1,12.41-35.14,49,49,0,0,1,3.4-6.65,55.55,55.55,0,0,1,4.37-5.76,50.86,50.86,0,0,1,10.4-9.08,60,60,0,0,1,11.31-6,67.37,67.37,0,0,1,10.56-3.41c0-.61,0-1.22,0-1.83-10.31,2.29-24.61,8.12-34.55,20.11a340.74,340.74,0,0,1,33.51-57.22c-.08-.9-.13-1.42-.13-1.42h0l-1.36.34a341.5,341.5,0,0,0-33.69,57.52c2.66-15.25.31-30.88-1.92-41.95l-1.72,1.09c.67,3.46,1.45,7.46,2,11.7a133,133,0,0,1,1,13.38,89.63,89.63,0,0,1-1,14.18,56,56,0,0,1-1.58,7.13,54.39,54.39,0,0,1-2.39,7.14,331.25,331.25,0,0,0-12.48,35.33,130.56,130.56,0,0,0-4.28-37.54c-1.34-5.67-3-11-4.49-15.63s-2.91-8.57-4.1-11.6l-1.4,1.75a221.31,221.31,0,0,1,9.9,33.35c2.75,13.85,4.09,29.12.33,44.56-1.2,4.88-2.23,9.8-3.29,14.72-.86,5-1.94,9.86-2.6,14.84-1.3-16.35-6.89-31.86-12.36-44.39a209.49,209.49,0,0,0-12-23.61l-.69,2.72c1.25,2.19,3.66,6.29,6.31,11.62s5.71,11.91,8.47,19.19c5.6,14.67,10.23,31.73,8.29,49.78-.72,5.74-1,11.52-1.47,17.28l.85,1.13,1-1c.43-5.74.75-11.48,1.47-17.19,2-18.15,13.06-32.42,24.46-41.37a84.35,84.35,0,0,1,16.5-10.18,81.59,81.59,0,0,1,11.2-4.4l.91-2A86.81,86.81,0,0,0,667.23,615c-10.64,6.63-22.65,17.58-28.86,32.83C639,642.85,640.11,638,641,633c1.06-4.88,2.08-9.78,3.28-14.63,3.76-15.48,14.1-27.2,25-34.75A85.34,85.34,0,0,1,698.56,570.75Z"/></g></g><g id="Group_10756" data-name="Group 10756"><path id="Path_10068" data-name="Path 10068" class="cls-5" d="M624.08,613.88a118.72,118.72,0,0,1-14,24.37c-2.57,3.8-5.55,7.4-8.24,10.92-1.38,1.75-2.81,3.46-4.21,5.12s-2.68,3.31-4,4.88l-7.53,8.77-3.36,3.75-2.83,3.25c-3.51,4-5.83,6.29-5.83,6.29a82.11,82.11,0,0,1-4.9-7.1q-1.1-1.74-2.34-3.89c-.78-1.43-1.58-3-2.4-4.68a91.75,91.75,0,0,1-4.83-11.64c-.75-2.17-1.47-4.47-2.16-6.87s-1.16-4.88-1.66-7.47a101.54,101.54,0,0,1-1.77-16.5,85.43,85.43,0,0,1,27.34-65.48,99.28,99.28,0,0,1,13-10.34c2.2-1.47,4.34-2.84,6.48-4.08s4.32-2.3,6.4-3.3a92.93,92.93,0,0,1,11.67-4.75q2.67-.9,5-1.58c1.6-.42,3.08-.78,4.41-1.08a84.48,84.48,0,0,1,8.5-1.51s0,3.29-.38,8.57c-.1,1.31-.2,2.75-.32,4.3s-.2,3.25-.31,5c-.28,3.55-.6,7.44-.93,11.52-.18,2.06-.38,4.16-.64,6.29s-.4,4.38-.68,6.6c-.61,4.38-1.08,9-2,13.53A118.44,118.44,0,0,1,624.08,613.88Z"/><g id="Group_10755" data-name="Group 10755"><path id="Path_10069" data-name="Path 10069" class="cls-2" d="M630.66,591.72l.3-1.49a78.5,78.5,0,0,0-9.25,1.87A76,76,0,0,0,610,596.54a55.3,55.3,0,0,0-22.74,19.88,231.14,231.14,0,0,1,11.92-28.86,38.92,38.92,0,0,1,3.2-5.38,44.3,44.3,0,0,1,4-4.56,40.9,40.9,0,0,1,9.25-6.91,47.41,47.41,0,0,1,9.82-4.16,52.78,52.78,0,0,1,9-2l.16-1.51c-8.73,1-21.09,4.84-30.12,14.29a236.51,236.51,0,0,1,32.28-45.17l0-1.2h0l-1.17.15a238.23,238.23,0,0,0-32.5,45.48c3.14-12.59,2.31-25.85,1.36-35.36l-1.53.8c.27,3,.63,6.39.77,10s.07,7.38-.13,11.31a79.76,79.76,0,0,1-1.7,11.82,63.1,63.1,0,0,1-4.12,11.73,231.17,231.17,0,0,0-12,29,119.91,119.91,0,0,0-1.93-31.75c-.8-4.84-1.86-9.42-2.86-13.43s-1.9-7.43-2.69-10.06l-1.3,1.42a213.42,213.42,0,0,1,6.37,28.7c1.61,11.81,2.12,24.64-1.44,37.48-1.14,4.06-2.11,8.17-3.11,12.26-.79,4.14-1.82,8.24-2.42,12.42-.89-13.73-5.14-26.91-9.32-37.7a195.88,195.88,0,0,0-9.13-20.46l-.7,2.29c.94,1.9,2.8,5.49,4.81,10.1s4.35,10.29,6.45,16.52c4.25,12.56,7.79,26.95,6.09,42.07-.64,4.81-.87,9.66-1.23,14.5l.72.94.83-.86c.35-4.81.58-9.63,1.23-14.41,1.71-15.23,11.35-27,21.12-34.07a65.7,65.7,0,0,1,14.1-7.83,63.59,63.59,0,0,1,9.49-3.15l.83-1.61a68.69,68.69,0,0,0-18.9,7.26c-9.08,5.11-19.44,13.94-24.84,26.66.59-4.15,1.61-8.22,2.4-12.33,1-4.07,1.95-8.15,3.09-12.19a48.67,48.67,0,0,1,22.2-28A66.92,66.92,0,0,1,630.66,591.72Z"/></g></g><path id="Path_10070" data-name="Path 10070" class="cls-6" d="M143.91,154.6C52.56,125-24.29,213,8.78,286.19c34.28,75.89,123.46,9,86.63-11.85-18.52-10.49-53.7,10.37-65.73,42.3C14.43,357.11,8,388.14,17.05,434.8c18.17,94.09,107.83,149.92,189.48,93.87,42.79-29.37,85.18-78.77,151.65-78.77"/><path id="Path_10071" data-name="Path 10071" class="cls-2" d="M193.83,148.86a69.25,69.25,0,0,0-1.67-15.25,7.88,7.88,0,0,1,3.72-8.6l6.91-4a7.88,7.88,0,0,0,2.88-10.76l-7.29-12.63a7.89,7.89,0,0,0-10.77-2.89h0l-6.93,4a7.92,7.92,0,0,1-9.31-1.09A69.55,69.55,0,0,0,145,82.42a7.89,7.89,0,0,1-5.59-7.52v-8A7.87,7.87,0,0,0,131.51,59H116.93A7.89,7.89,0,0,0,109,66.9v8a7.88,7.88,0,0,1-5.58,7.52A69.55,69.55,0,0,0,77.07,97.67a7.92,7.92,0,0,1-9.31,1.09l-6.93-4a7.89,7.89,0,0,0-10.77,2.89h0l-7.29,12.63A7.87,7.87,0,0,0,45.65,121l6.91,4a7.9,7.9,0,0,1,3.72,8.61,70,70,0,0,0,0,30.49,7.9,7.9,0,0,1-3.72,8.61l-6.91,4a7.88,7.88,0,0,0-2.89,10.76h0l7.3,12.63A7.88,7.88,0,0,0,60.82,203l6.93-4a7.88,7.88,0,0,1,9.31,1.09,69.66,69.66,0,0,0,26.4,15.25,7.89,7.89,0,0,1,5.58,7.51v8a7.88,7.88,0,0,0,7.88,7.88h14.59a7.88,7.88,0,0,0,7.88-7.88h0v-8A7.89,7.89,0,0,1,145,215.3a69.49,69.49,0,0,0,26.39-15.25,7.9,7.9,0,0,1,9.31-1.08l6.93,4a7.88,7.88,0,0,0,10.77-2.88h0l7.29-12.63a7.89,7.89,0,0,0-2.88-10.77h0l-6.92-4a7.91,7.91,0,0,1-3.71-8.61A69.18,69.18,0,0,0,193.83,148.86Zm-69.61,35.63A35.62,35.62,0,0,1,88.6,148.87h0a35.62,35.62,0,1,1,35.62,35.63Z"/><path id="Path_10072" data-name="Path 10072" class="cls-7" d="M297.19,181.6a54.33,54.33,0,0,0-1.3-11.79,6.11,6.11,0,0,1,2.87-6.66l5.34-3.08a6.1,6.1,0,0,0,2.23-8.32L300.69,142a6.1,6.1,0,0,0-8.32-2.23l-5.36,3.1a6.1,6.1,0,0,1-7.2-.84,53.65,53.65,0,0,0-20.4-11.78,6.1,6.1,0,0,1-4.32-5.82v-6.18a6.1,6.1,0,0,0-6.1-6.1H237.72a6.11,6.11,0,0,0-6.1,6.1h0v6.18a6.09,6.09,0,0,1-4.31,5.81A53.79,53.79,0,0,0,206.9,142a6.1,6.1,0,0,1-7.2.84l-5.35-3.09A6.1,6.1,0,0,0,186,142l-5.64,9.76a6.11,6.11,0,0,0,2.23,8.33l5.34,3.08a6.12,6.12,0,0,1,2.87,6.65,54.32,54.32,0,0,0-1.29,11.79,53.7,53.7,0,0,0,1.3,11.78A6.11,6.11,0,0,1,188,200l-5.33,3.08a6.09,6.09,0,0,0-2.23,8.32l5.63,9.77a6.12,6.12,0,0,0,8.33,2.23l5.35-3.1a6.1,6.1,0,0,1,7.2.84A53.79,53.79,0,0,0,227.32,233a6.09,6.09,0,0,1,4.31,5.81V245a6.1,6.1,0,0,0,6.1,6.1H249a6.1,6.1,0,0,0,6.1-6.1h0v-6.18a6.1,6.1,0,0,1,4.32-5.81,53.79,53.79,0,0,0,20.41-11.79,6.1,6.1,0,0,1,7.2-.84l5.35,3.1a6.11,6.11,0,0,0,8.33-2.23l5.63-9.77a6.1,6.1,0,0,0-2.23-8.31l-5.34-3.08a6.1,6.1,0,0,1-2.87-6.65A54.55,54.55,0,0,0,297.19,181.6Zm-53.83,27.54A27.54,27.54,0,1,1,270.9,181.6a27.53,27.53,0,0,1-27.54,27.54Z"/><path id="Path_10073" data-name="Path 10073" class="cls-6" d="M175.06,169.11c20.62,12.26,71.58,25.86,95.84,5.26s24.62-65.88,5.59-91.39c-7.21-9.67-21.62-17.27-30.77-9.41-7.95,6.83-5,20.49,2.53,27.78,14.38,13.91,38.91,11.67,55.66.74,54.27-35.4,99.28-76.6,159.49-89.93,74-16.37,135.06,20.34,112.54,73-10.13,23.69-20.74,47.77-23.76,73.36S560,214.22,584.52,222c15.63,4.94,32.4-.28,48.33-4.16s34.24-6,47.4,3.78c13.51,10.06,18,30.9,10.22,45.84-19.43,37.39-120.33,46.29-120.33,97"/><g id="Group_10759" data-name="Group 10759"><g id="Group_10757" data-name="Group 10757"><rect id="Rectangle_1134" data-name="Rectangle 1134" class="cls-2" x="476.19" y="64.06" width="152.02" height="204.85" rx="9.78"/><path id="Path_10074" data-name="Path 10074" class="cls-8" d="M489.69,64.06h125a13.49,13.49,0,0,1,13.49,13.5V255.42a13.49,13.49,0,0,1-13.49,13.49"/></g><g id="Group_10758" data-name="Group 10758"><rect id="Rectangle_1135" data-name="Rectangle 1135" class="cls-9" x="500.23" y="119.04" width="88.83" height="7.28"/><rect id="Rectangle_1136" data-name="Rectangle 1136" class="cls-9" x="500.23" y="147.09" width="88.83" height="7.28"/><rect id="Rectangle_1137" data-name="Rectangle 1137" class="cls-9" x="500.23" y="175.14" width="88.83" height="7.28"/><rect id="Rectangle_1138" data-name="Rectangle 1138" class="cls-9" x="500.23" y="203.19" width="88.83" height="7.28"/><rect id="Rectangle_1139" data-name="Rectangle 1139" class="cls-9" x="500.23" y="231.24" width="88.83" height="7.28"/></g><g id="TO_DO" data-name="TO DO" class="cls-10"><text class="cls-11" transform="translate(520.13 92.5)">TO DO</text></g><rect id="Rectangle_1140" data-name="Rectangle 1140" class="cls-8" x="598.46" y="115.64" width="14.08" height="14.08" rx="1.85"/><rect id="Rectangle_1141" data-name="Rectangle 1141" class="cls-8" x="598.46" y="143.69" width="14.08" height="14.08" rx="1.85"/><rect id="Rectangle_1142" data-name="Rectangle 1142" class="cls-8" x="598.46" y="171.74" width="14.08" height="14.08" rx="1.85"/><rect id="Rectangle_1143" data-name="Rectangle 1143" class="cls-8" x="598.46" y="199.79" width="14.08" height="14.08" rx="1.85"/><rect id="Rectangle_1144" data-name="Rectangle 1144" class="cls-8" x="598.46" y="227.84" width="14.08" height="14.08" rx="1.85"/><path id="Path_10075" data-name="Path 10075" class="cls-12" d="M601,127.08l.08-8.89,8.9.08-.08,8.81Z"/><path id="Path_10076" data-name="Path 10076" class="cls-13" d="M601,155.14l.08-8.9,8.9.08-.08,8.82Z"/><path id="Path_10077" data-name="Path 10077" class="cls-14" d="M601,183.19l.08-8.9,8.9.08-.08,8.82Z"/></g><g id="Group_10770" data-name="Group 10770"><g id="Group_10760" data-name="Group 10760"><rect id="Rectangle_1145" data-name="Rectangle 1145" class="cls-2" x="370.18" y="370.6" width="300.86" height="239.38" rx="26"/><path id="Path_10078" data-name="Path 10078" class="cls-15" d="M671,406.49V574.1A35.88,35.88,0,0,1,635.15,610H406.07a35.88,35.88,0,0,1-35.89-35.88h0"/><path id="Path_10079" data-name="Path 10079" class="cls-16" d="M370.18,406.49a35.88,35.88,0,0,1,35.88-35.89H635.15A35.88,35.88,0,0,1,671,406.48H370.18Z"/></g><g id="Group_10765" data-name="Group 10765"><g id="Group_10761" data-name="Group 10761"><rect id="Rectangle_1146" data-name="Rectangle 1146" class="cls-9" x="413.01" y="433.19" width="37.55" height="26.25" rx="3.21"/><rect id="Rectangle_1147" data-name="Rectangle 1147" class="cls-9" x="457.42" y="433.19" width="37.55" height="26.25" rx="3.21"/><rect id="Rectangle_1148" data-name="Rectangle 1148" class="cls-9" x="501.83" y="433.19" width="37.55" height="26.25" rx="3.21"/><rect id="Rectangle_1149" data-name="Rectangle 1149" class="cls-9" x="546.25" y="433.19" width="37.55" height="26.25" rx="3.21"/><rect id="Rectangle_1150" data-name="Rectangle 1150" class="cls-9" x="590.66" y="433.19" width="37.55" height="26.25" rx="3.21"/></g><g id="Group_10762" data-name="Group 10762"><rect id="Rectangle_1151" data-name="Rectangle 1151" class="cls-9" x="413.01" y="469.95" width="37.55" height="26.25" rx="3.21"/><rect id="Rectangle_1152" data-name="Rectangle 1152" class="cls-17" x="457.42" y="469.95" width="37.55" height="26.25" rx="3.21"/><rect id="Rectangle_1153" data-name="Rectangle 1153" class="cls-9" x="501.83" y="469.95" width="37.55" height="26.25" rx="3.21"/><rect id="Rectangle_1154" data-name="Rectangle 1154" class="cls-9" x="546.25" y="469.95" width="37.55" height="26.25" rx="3.21"/><rect id="Rectangle_1155" data-name="Rectangle 1155" class="cls-9" x="590.66" y="469.95" width="37.55" height="26.25" rx="3.21"/></g><g id="Group_10763" data-name="Group 10763"><rect id="Rectangle_1156" data-name="Rectangle 1156" class="cls-9" x="413.01" y="506.71" width="37.55" height="26.25" rx="3.21"/><rect id="Rectangle_1157" data-name="Rectangle 1157" class="cls-9" x="457.42" y="506.71" width="37.55" height="26.25" rx="3.21"/><rect id="Rectangle_1158" data-name="Rectangle 1158" class="cls-9" x="501.83" y="506.71" width="37.55" height="26.25" rx="3.21"/><rect id="Rectangle_1159" data-name="Rectangle 1159" class="cls-18" x="546.25" y="506.71" width="37.55" height="26.25" rx="3.21"/><rect id="Rectangle_1160" data-name="Rectangle 1160" class="cls-9" x="590.66" y="506.71" width="37.55" height="26.25" rx="3.21"/></g><g id="Group_10764" data-name="Group 10764"><rect id="Rectangle_1161" data-name="Rectangle 1161" class="cls-9" x="413.01" y="543.46" width="37.55" height="26.25" rx="3.21"/><rect id="Rectangle_1162" data-name="Rectangle 1162" class="cls-9" x="457.42" y="543.46" width="37.55" height="26.25" rx="3.21"/><rect id="Rectangle_1163" data-name="Rectangle 1163" class="cls-9" x="501.83" y="543.46" width="37.55" height="26.25" rx="3.21"/><rect id="Rectangle_1164" data-name="Rectangle 1164" class="cls-9" x="546.25" y="543.46" width="37.55" height="26.25" rx="3.21"/><rect id="Rectangle_1165" data-name="Rectangle 1165" class="cls-9" x="590.66" y="543.46" width="37.55" height="26.25" rx="3.21"/></g></g><g id="Group_10766" data-name="Group 10766"><path id="Path_10080" data-name="Path 10080" class="cls-9" d="M597.41,393.72h0a8.92,8.92,0,0,1-8.92-8.92V356.39a8.92,8.92,0,0,1,8.92-8.92h0a8.92,8.92,0,0,1,8.92,8.92V384.8a8.92,8.92,0,0,1-8.92,8.92Z"/><path id="Path_10081" data-name="Path 10081" class="cls-8" d="M606.33,356.4v28.41a8.92,8.92,0,0,1-8.92,8.9h0a8.92,8.92,0,0,1-8.92-8.92"/></g><g id="Group_10767" data-name="Group 10767"><path id="Path_10082" data-name="Path 10082" class="cls-19" d="M528.46,458.24h0l-15.71-15.71a5.75,5.75,0,0,1,0-8.13h0l15.71,15.71A5.75,5.75,0,0,1,528.46,458.24Z"/><path id="Path_10083" data-name="Path 10083" class="cls-19" d="M508.68,454.17h0l15.71-15.71a5.77,5.77,0,0,1,8.14,0h0l-15.71,15.71a5.75,5.75,0,0,1-8.13,0Z"/></g><g id="Group_10768" data-name="Group 10768"><path id="Path_10084" data-name="Path 10084" class="cls-19" d="M439.63,531.76h0l-15.71-15.71a5.77,5.77,0,0,1,0-8.14h0l15.71,15.71a5.75,5.75,0,0,1,0,8.13Z"/><path id="Path_10085" data-name="Path 10085" class="cls-19" d="M419.86,527.69h0L435.57,512a5.75,5.75,0,0,1,8.14,0h0L428,527.69a5.74,5.74,0,0,1-8.13,0Z"/></g><g id="Group_10769" data-name="Group 10769"><path id="Path_10086" data-name="Path 10086" class="cls-19" d="M617.29,568.51h0l-15.7-15.71a5.75,5.75,0,0,1,0-8.13h0l15.7,15.71a5.76,5.76,0,0,1,0,8.14Z"/><path id="Path_10087" data-name="Path 10087" class="cls-19" d="M597.51,564.45h0l15.71-15.71a5.76,5.76,0,0,1,8.14,0h0l-15.71,15.71A5.77,5.77,0,0,1,597.51,564.45Z"/></g></g><g id="Group_10772" data-name="Group 10772"><circle id="Ellipse_257" data-name="Ellipse 257" class="cls-20" cx="389.97" cy="266.19" r="168.2"/><circle id="Ellipse_258" data-name="Ellipse 258" class="cls-2" cx="389.97" cy="266.19" r="132.87"/><g id="Group_10771" data-name="Group 10771"><rect id="Rectangle_1166" data-name="Rectangle 1166" class="cls-9" x="382.62" y="142.21" width="14.71" height="21.03" rx="1.85"/><rect id="Rectangle_1167" data-name="Rectangle 1167" class="cls-9" x="325.88" y="157.41" width="14.71" height="21.04" rx="1.85" transform="translate(-39.32 189.11) rotate(-30)"/><rect id="Rectangle_1168" data-name="Rectangle 1168" class="cls-9" x="284.35" y="198.94" width="14.71" height="21.04" rx="1.85" transform="matrix(0.5, -0.87, 0.87, 0.5, -35.55, 357.35)"/><rect id="Rectangle_1169" data-name="Rectangle 1169" class="cls-9" x="265.99" y="258.84" width="21.04" height="14.71" rx="1.85"/><rect id="Rectangle_1170" data-name="Rectangle 1170" class="cls-9" x="281.19" y="315.57" width="21.04" height="14.71" rx="1.85" transform="translate(-122.38 189.13) rotate(-30)"/><rect id="Rectangle_1171" data-name="Rectangle 1171" class="cls-9" x="322.72" y="357.1" width="21.04" height="14.71" rx="1.85" transform="translate(-149.01 470.83) rotate(-60)"/><rect id="Rectangle_1172" data-name="Rectangle 1172" class="cls-9" x="382.62" y="369.14" width="14.71" height="21.03" rx="1.85"/><rect id="Rectangle_1173" data-name="Rectangle 1173" class="cls-9" x="439.35" y="353.94" width="14.71" height="21.04" rx="1.85" transform="translate(-122.38 272.17) rotate(-30)"/><rect id="Rectangle_1174" data-name="Rectangle 1174" class="cls-9" x="480.88" y="312.41" width="14.71" height="21.04" rx="1.85" transform="translate(-35.54 584.3) rotate(-60)"/><rect id="Rectangle_1175" data-name="Rectangle 1175" class="cls-9" x="492.92" y="258.84" width="21.03" height="14.71" rx="1.85"/><rect id="Rectangle_1176" data-name="Rectangle 1176" class="cls-9" x="477.72" y="202.11" width="21.04" height="14.71" rx="1.85" transform="translate(-39.32 272.18) rotate(-30)"/><rect id="Rectangle_1177" data-name="Rectangle 1177" class="cls-9" x="436.19" y="160.58" width="21.04" height="14.71" rx="1.85" transform="translate(77.93 470.83) rotate(-60)"/></g><path id="Path_10088" data-name="Path 10088" class="cls-15" d="M390,133.33a132.87,132.87,0,0,1,0,265.73"/><path id="Path_10089" data-name="Path 10089" class="cls-15" d="M390,98a168.2,168.2,0,0,1,0,336.4"/><path id="Path_10090" data-name="Path 10090" class="cls-19" d="M391.62,160.24c4.4,20.86,15.11,88.7.19,123.27a2,2,0,0,1-3.67,0c-14.92-34.57-4.21-102.41.19-123.27a1.69,1.69,0,0,1,3.29,0Z"/><path id="Path_10091" data-name="Path 10091" class="cls-19" d="M308.14,264.92c16.11-3.4,73.48-11.66,100.17-.14a1.54,1.54,0,0,1,0,2.83c-26.69,11.52-84.06,3.25-100.17-.15a1.29,1.29,0,0,1,0-2.54Z"/></g><g id="Group_10777" data-name="Group 10777"><g id="Group_10773" data-name="Group 10773"><path id="Path_10092" data-name="Path 10092" class="cls-21" d="M150.15,263.68,161,233.27h32.21l-7.27,25.85Z"/><path id="Path_10093" data-name="Path 10093" class="cls-22" d="M187,246.27l-1.07,12.86,3.46-12.31Z"/><circle id="Ellipse_259" data-name="Ellipse 259" class="cls-23" cx="172.13" cy="216.02" r="24.73"/><path id="Path_10094" data-name="Path 10094" class="cls-21" d="M194.33,205.12c5.73,11.61,6.67,30.29.74,38.38s-13.69-.62-15.41-5c0,0-5.36-4.86-4.51-8.72,1-4.49,6.8-3.83,7.62,1.1"/><path id="Path_10095" data-name="Path 10095" class="cls-24" d="M177.75,236.46c2.44,2.31,5.27.29,4.82-2.79"/><path id="Path_10096" data-name="Path 10096" class="cls-25" d="M180.19,227.17c2.53,1.37,3.64,5.28,6.88,4.68,2.44-.45,3.11-3.34,2.65-5.38s-1-4.92.11-6.29,4.81-4,2.45-7.34,2.56-6.68,3.28-10.7c1.3-7.32-8-19.67-25.12-16.33-21.23,4.12-20.23,18.77-20.23,18.77s-4.18,1.72-6.4,8.32c-1.95,5.78.17,12.3,7.3,19.2s5.4,8.92,4,10.64-.47,3.76,4.86,4.08,17.21,0,17.79-10.36a14.46,14.46,0,0,1-2.61-5,3.62,3.62,0,0,1,5.05-4.34Z"/><path id="Path_10097" data-name="Path 10097" class="cls-24" d="M196.74,211.28c3.43,11.25,3.28,25.45-1.67,32.22-2.92,4-6.29,3.89-9.17,2.24"/><path id="Path_10098" data-name="Path 10098" class="cls-26" d="M146.15,264.65l4-8.08s11-5.25,38.46-1.55l1.85,4.15Z"/></g><g id="Group_10775" data-name="Group 10775"><path id="Path_10099" data-name="Path 10099" class="cls-21" d="M224.19,243.22a12.61,12.61,0,0,0-7.55-2.51h-3.7L205,238.46a3.59,3.59,0,0,0-3.35.77c-2.2,2-6.31,5.62-8.32,7.49-.48.45.13,1.44.57,1.58a6.07,6.07,0,0,0,5.32-1.06l.46-.33,3.32,3.88a25.53,25.53,0,0,1,4.77,8.37c4.34,12.71,12.54,11,17.17,14.43l10.28-21.79C230.54,248,226.72,245.12,224.19,243.22Zm-19.68,2,3.12,1,.46,2.2Z"/><path id="Path_10100" data-name="Path 10100" class="cls-27" d="M224.94,261.57c-1.15,1.44-7.52.29-14.54,2.11v.93c4.51,6.81,10.75,6.19,14.56,9l10.28-21.79A39.89,39.89,0,0,0,224.94,261.57Z"/><path id="Path_10101" data-name="Path 10101" class="cls-28" d="M139.47,266.45c-31,8.19-56.15,76-54.4,88.63s26.2,55,54,68.22l8.58-23.81S118,368.89,119,357.54c0,0,1.61-7.75,14.37-20.65Z"/><g id="Group_10774" data-name="Group 10774"><path id="Path_10102" data-name="Path 10102" class="cls-27" d="M139.65,393.11a108.82,108.82,0,0,1-3.25,28.81c.89.49,1.79.95,2.69,1.38l8.58-23.82s-3.68-3.79-8.39-9.19A26.52,26.52,0,0,1,139.65,393.11Z"/><path id="Path_10103" data-name="Path 10103" class="cls-27" d="M133.33,336.89l4.9-43.31c-17.71,3.35-22.21,17-18.72,28.32,3.81,12.37,4.46,13.69,7.39,22.15Q129.93,340.32,133.33,336.89Z"/></g><path id="Path_10104" data-name="Path 10104" class="cls-29" d="M140.06,462.66c-12.66-30.25,11.75-45-3.91-95.34-8.59-27.64-14.1-50.6-17.47-66.57a29.42,29.42,0,0,1,20.8-34.3c20.29-5.85,49.56-10.94,75.56-4a29.38,29.38,0,0,1,21.13,22.27c5.34,25.07,21.84,81.63,16.55,177.94Z"/><path id="Path_10105" data-name="Path 10105" class="cls-24" d="M140.06,462.66c-12.66-30.25,11.75-45-3.91-95.34-8.59-27.64-14.11-50.6-17.48-66.57"/><path id="Path_10106" data-name="Path 10106" class="cls-8" d="M225.81,327.16s18,68.15,4.64,135.5"/><path id="Path_10107" data-name="Path 10107" class="cls-30" d="M211.2,320.11C224.31,334,250,360.88,250,360.88a302.8,302.8,0,0,0-7.41-44.17Z"/><path id="Path_10108" data-name="Path 10108" class="cls-8" d="M170.84,462.66a55.55,55.55,0,0,1-1.44-36.35c10.79-34.06-43.18-152.83-15-163.55"/><path id="Path_10109" data-name="Path 10109" class="cls-31" d="M282.33,320.1c7.68-27.62-47.09-68.3-47.09-68.3A25.92,25.92,0,0,0,225,273.59Z"/><path id="Path_10110" data-name="Path 10110" class="cls-22" d="M225,273.59l18.52,15,18-.72c-11.08-11-27.48-22.59-33.87-26.95A25.43,25.43,0,0,0,225,273.59Z"/><path id="Path_10111" data-name="Path 10111" class="cls-32" d="M211.43,261.57c-19.73-2.1-19.48,44.89,0,58.53s65.64,18.89,70.89,0S234.62,264,211.43,261.57Z"/><path id="Path_10112" data-name="Path 10112" class="cls-8" d="M197.67,295.05c1.85,10.14,6.46,19.95,13.76,25.06,19.48,13.64,65.64,18.89,70.89,0"/><path id="Path_10113" data-name="Path 10113" class="cls-8" d="M269.43,295c-16.17-16.11-43.17-31.89-58-33.47"/><path id="Path_10114" data-name="Path 10114" class="cls-8" d="M282.32,320.1c7.69-27.63-47.08-68.3-47.08-68.3a26,26,0,0,0-9.44,13.95"/><path id="Path_10115" data-name="Path 10115" class="cls-24" d="M139.47,266.45c15.87-4.58,37.24-8.69,58.24-6.94"/></g><g id="Group_10776" data-name="Group 10776"><path id="Path_10116" data-name="Path 10116" class="cls-33" d="M190.46,462.65H140.07A66.72,66.72,0,0,0,144.3,471s-1.48,66.65-4.44,83.68c-2.75,15.81-15.07,37.36-6.16,118,6.63,4.28,19.08,1.22,28.09-1.91L190.46,487Z"/><path id="Path_10117" data-name="Path 10117" class="cls-30" d="M178.74,469.15l-1.69,103.71,13.4-85.9V469.15Z"/><path id="Path_10118" data-name="Path 10118" class="cls-34" d="M218.21,673c15.5-84.68,23.17-154.25,26.25-210.35l-73.62,0A37.13,37.13,0,0,0,187,476.8s23.13,63.1,13.84,85.65c-11.47,27.86-13.64,81.39-13.92,110.3C193.1,681.07,210.39,679.69,218.21,673Z"/><path id="Path_10119" data-name="Path 10119" class="cls-22" d="M244.47,462.66H140.07c.52,1.24,1.11,2.51,1.76,3.81H244.24C244.31,465.21,244.4,463.91,244.47,462.66Z"/><path id="Path_10120" data-name="Path 10120" class="cls-35" d="M239.57,686.33a13.58,13.58,0,0,0-4.79-4.37l-16.57-9c-7.81,6.69-25.11,8.08-31.29-.24,0,5.26,0,9.72,0,13a6.7,6.7,0,0,0,6.72,6.64h46.21a2,2,0,0,0,1.69-3.16Z"/><path id="Path_10121" data-name="Path 10121" class="cls-36" d="M133.68,672.65q.9,8.05,2.08,16.93a3.29,3.29,0,0,0,3.24,2.86h27.45a3.26,3.26,0,0,0,3.28-3.24,3.22,3.22,0,0,0-.13-.93,125,125,0,0,0-7.82-17.54C152.77,673.87,140.33,676.93,133.68,672.65Z"/><path id="Path_10122" data-name="Path 10122" class="cls-8" d="M175.32,469.15A29.71,29.71,0,0,0,187,476.79s23.13,63.1,13.84,85.65"/><path id="Path_10123" data-name="Path 10123" class="cls-15" d="M230.45,462.65c-1.57,70.62-7.84,117.39-23.94,215.4"/><line id="Line_175" data-name="Line 175" class="cls-15" x1="229.51" y1="491.07" x2="235.38" y2="462.66"/><line id="Line_176" data-name="Line 176" class="cls-15" x1="183.75" y1="498.02" x2="159.24" y2="671.58"/></g></g><path id="Path_10124" data-name="Path 10124" class="cls-37" d="M385.25,27.68,388,35a24.17,24.17,0,0,0,14.3,14.3L409.58,52l-7.32,2.71A24.18,24.18,0,0,0,388,69l-2.71,7.33L382.54,69a24.18,24.18,0,0,0-14.3-14.29L360.92,52l7.32-2.71A24.17,24.17,0,0,0,382.54,35Z"/><path id="Path_10125" data-name="Path 10125" class="cls-37" d="M661.79,142.16l2.72,7.33a24.16,24.16,0,0,0,14.29,14.29l7.33,2.71-7.34,2.71a24.19,24.19,0,0,0-14.29,14.29l-2.71,7.32-2.71-7.32a24.18,24.18,0,0,0-14.29-14.3l-7.33-2.71,7.33-2.71a24.19,24.19,0,0,0,14.29-14.29Z"/><path id="Path_10126" data-name="Path 10126" class="cls-37" d="M88.6,415.87l2.71,7.32a24.23,24.23,0,0,0,14.29,14.3l7.33,2.7-7.33,2.72A24.19,24.19,0,0,0,91.31,457.2l-2.71,7.33-2.71-7.33a24.18,24.18,0,0,0-14.3-14.29l-7.33-2.72,7.33-2.7a24.22,24.22,0,0,0,14.3-14.3Z"/><path id="Path_10127" data-name="Path 10127" class="cls-37" d="M597.41,261.65l1.75,4.76a15.7,15.7,0,0,0,9.28,9.28l4.76,1.76-4.76,1.76a15.7,15.7,0,0,0-9.28,9.28l-1.76,4.75-1.76-4.75a15.71,15.71,0,0,0-9.27-9.28l-4.77-1.76,4.77-1.76a15.71,15.71,0,0,0,9.27-9.28Z"/><path id="Path_10128" data-name="Path 10128" class="cls-37" d="M574.75,304.18l.76,2.07a6.8,6.8,0,0,0,4,4l2.07.77-2.07.76a6.8,6.8,0,0,0-4,4l-.76,2.07-.77-2.07a6.8,6.8,0,0,0-4-4l-2.07-.76,2.07-.77a6.8,6.8,0,0,0,4-4Z"/><path id="Path_10129" data-name="Path 10129" class="cls-37" d="M276.51,423.41l.76,2.07a6.84,6.84,0,0,0,4,4l2.07.76-2.07.76a6.86,6.86,0,0,0-4,4l-.76,2.07-.76-2.07a6.83,6.83,0,0,0-4-4l-2.07-.76,2.07-.76a6.82,6.82,0,0,0,4-4Z"/><path id="Path_10130" data-name="Path 10130" class="cls-37" d="M637.47,331.74l.76,2.07a6.83,6.83,0,0,0,4,4l2.06.76-2.06.76a6.86,6.86,0,0,0-4,4l-.76,2.07-.77-2.07a6.84,6.84,0,0,0-4-4l-2.07-.76,2.07-.76a6.82,6.82,0,0,0,4-4Z"/><path id="Path_10131" data-name="Path 10131" class="cls-37" d="M64.27,388,65,390.1a6.83,6.83,0,0,0,4,4l2.06.76-2.06.76a6.86,6.86,0,0,0-4,4l-.76,2.07-.77-2.07a6.8,6.8,0,0,0-4-4l-2.07-.76,2.07-.77a6.79,6.79,0,0,0,4-4Z"/><path id="Path_10132" data-name="Path 10132" class="cls-37" d="M446.71,71.77l.77,2.07a6.82,6.82,0,0,0,4,4l2.07.76-2.07.77a6.8,6.8,0,0,0-4,4l-.77,2.07L446,83.44a6.8,6.8,0,0,0-4-4l-2.07-.77,2.07-.76a6.84,6.84,0,0,0,4-4Z"/><g id="Group_10779" data-name="Group 10779"><path id="Path_10133" data-name="Path 10133" class="cls-38" d="M425.2,583.65a101.15,101.15,0,0,1,.21,38.54,115.5,115.5,0,0,1-4.63,17.08c-1,2.66-1.93,5.21-3,7.65s-2.21,4.77-3.33,7a109.65,109.65,0,0,1-6.85,11.72,95.13,95.13,0,0,1-6.24,8.57c-3.72,4.61-6.18,7.05-6.18,7.05s-2.21-2.79-5.5-7.53L384,665.26c-2.16-3.22-4.41-6.81-6.89-10.65-1.21-1.93-2.43-3.92-3.62-6s-2.52-4.15-3.74-6.31c-2.37-4.31-4.94-8.79-7.1-13.45a117.55,117.55,0,0,1-13-61.07c.07-5.13.6-10.28,1-15.18.23-2.46.55-4.9.85-7.28s.56-4.67.88-6.92c.71-4.53,1.3-8.72,2-12.54s1.31-7.18,1.83-10c1.08-5.67,2-9.12,2-9.12s3.24,1.23,8.52,3.92a96.15,96.15,0,0,1,9.18,5.29,109.67,109.67,0,0,1,11,7.92c1.92,1.56,3.89,3.23,5.88,5s3.87,3.74,5.82,5.78a114.16,114.16,0,0,1,11.18,13.73A101.07,101.07,0,0,1,425.2,583.65Z"/><g id="Group_10778" data-name="Group 10778"><path id="Path_10134" data-name="Path 10134" class="cls-2" d="M413.27,554l-1-1.75c-1.45,2.57-3.27,6-5.17,9.93s-4.09,8.58-6,13.53a116.67,116.67,0,0,0-8.41,33.36,317.46,317.46,0,0,0-7-33.43,50,50,0,0,1-1.28-6.74,50.94,50.94,0,0,1-.53-6.64,80.87,80.87,0,0,1,1-12.91,119.35,119.35,0,0,1,2.62-11.94c1-3.74,2.27-7.24,3.33-10.28l-1.4-1.2c-3.49,9.68-7.63,23.46-7.13,37.57a329.87,329.87,0,0,0-22.92-56.3l-1.18-.48h0L357.8,508a329.35,329.35,0,0,1,22.8,56C373.13,551.92,361,544.8,352,541.36l-.21,1.66a62,62,0,0,1,9.11,4.47,54.7,54.7,0,0,1,9.44,6.86,46.89,46.89,0,0,1,8.25,9.53,50.79,50.79,0,0,1,3.23,5.76,44.08,44.08,0,0,1,2.24,6.43,314.79,314.79,0,0,1,7,33.26,63.93,63.93,0,0,0-20.43-26A88.64,88.64,0,0,0,359,575.93a90.93,90.93,0,0,0-9.46-4.23v1.7a79,79,0,0,1,24.89,15.36c8.95,8.17,16.89,20,18.49,34.44.53,4.53.89,9.07,1.28,13.61.22,4.56.63,9.1.68,13.66-3.91-14.48-13.5-25.79-22.35-33.07a80.62,80.62,0,0,0-18.93-11.69l.58,2a74.39,74.39,0,0,1,9.6,5.35,78.5,78.5,0,0,1,13.73,11.18c9.28,9.46,17.69,23.62,17.47,40.27,0,5.25-.31,10.48-.54,15.73l.8,1,.89-.93c.23-5.27.57-10.53.54-15.81.22-16.54,6.36-31.45,13.12-44,3.35-6.24,6.95-11.83,9.93-16.31s5.7-7.89,7.09-9.71l-.29-2.53a182.17,182.17,0,0,0-13.69,19.85c-6.42,10.65-13.27,24-16.28,38.67-.05-4.57-.46-9.15-.67-13.72-.4-4.57-.77-9.14-1.29-13.69-1.61-14.4,1.44-28,5.62-40.2A193.35,193.35,0,0,1,413.27,554Z"/></g></g><g id="Group_10786" data-name="Group 10786"><g id="Group_10780" data-name="Group 10780"><path id="Path_10135" data-name="Path 10135" class="cls-19" d="M518.34,584.48c1.46,2.33,5.74,4.68,10.42,8.73a40.74,40.74,0,0,1,12.57,17.64,55.54,55.54,0,0,1,1.64,27c-1.28,7.71-3.43,13.49-3.37,17.07-.07-3.6-2.55-9.27-5.79-15.82a185.77,185.77,0,0,1-10-22.33,74.52,74.52,0,0,1-3.26-19.32C520.17,591.66,519.81,586.82,518.34,584.48Z"/></g><g id="Group_10781" data-name="Group 10781"><path id="Path_10136" data-name="Path 10136" class="cls-19" d="M718.05,553.36c-2.84,3-5.69,9.25-8.83,17.1a263.34,263.34,0,0,1-12,26.85c-3.15,6-6.36,11.67-9.43,17.05s-6,10.5-8.43,15.29c-5.06,9.53-8.64,17.74-9.38,23.11.75-5.34-.29-14.22.48-25.59a106,106,0,0,1,2.81-18.5,91,91,0,0,1,7.65-20.06A73.27,73.27,0,0,1,702,564.76C709,559.39,715.22,556.37,718.05,553.36Z"/></g><g id="Group_10782" data-name="Group 10782"><path id="Path_10137" data-name="Path 10137" class="cls-19" d="M506.15,603.68c-.81,1.59,0,5.1.85,9.12a28.49,28.49,0,0,1,.63,12.82,52.8,52.8,0,0,1-6.83,14.24c-2.58,4.25-4.75,8-4.63,10.38-.11-2.31-2.58-5.9-4.59-10.94a29.76,29.76,0,0,1-1.88-18.15,21.69,21.69,0,0,1,8.75-11.86C502,606.66,505.35,605.26,506.15,603.68Z"/></g><g id="Group_10783" data-name="Group 10783"><path id="Path_10138" data-name="Path 10138" class="cls-19" d="M363,549.56c-1.76,3.51-2.53,10-3.15,18a214.23,214.23,0,0,1-3.45,27.65c-2.54,12.55-5.73,24-7.87,34.07s-3.43,18.42-2.69,23.5c-.72-5-4.12-12.84-6.55-23.39a99.54,99.54,0,0,1-2.52-17.6,85.39,85.39,0,0,1,1.53-20.31,67.88,67.88,0,0,1,12.95-27.3C356.34,557.43,361.24,553.06,363,549.56Z"/></g><g id="Group_10784" data-name="Group 10784"><path id="Path_10139" data-name="Path 10139" class="cls-19" d="M311.93,587.28c1,2.23,4.71,4.72,8.66,8.65a36,36,0,0,1,10.12,16.33,50.81,50.81,0,0,1-.15,24c-1.51,6.82-3.61,12-3.49,15.18-.11-3.2-2.65-8.2-5.68-14.08A100.53,100.53,0,0,1,312.84,617a51.2,51.2,0,0,1-.87-17.71C312.43,593.94,312.94,589.52,311.93,587.28Z"/></g><g id="Group_10785" data-name="Group 10785"><path id="Path_10140" data-name="Path 10140" class="cls-19" d="M126.81,556.51c-1.55,3-2,8.83-2.27,15.88a138.41,138.41,0,0,1-2.61,24.11c-2.32,10.81-5.53,20.65-7.85,29.34s-3.89,16-3.34,20.41c-.54-4.41-3.65-11.21-5.91-20.46a73.58,73.58,0,0,1-1-33.23A55.49,55.49,0,0,1,116,569C120.73,563.2,125.28,559.56,126.81,556.51Z"/></g></g><path id="Path_10141" data-name="Path 10141" class="cls-37" d="M182.62,6.87l2.71,7.32a24.2,24.2,0,0,0,14.3,14.3l7.32,2.7-7.33,2.71a24.19,24.19,0,0,0-14.29,14.29l-2.71,7.33-2.7-7.32a24.17,24.17,0,0,0-14.3-14.3l-7.32-2.71,7.32-2.7a24.2,24.2,0,0,0,14.3-14.3Z"/><path id="Path_10142" data-name="Path 10142" class="cls-37" d="M112.93,1l1.76,4.76A15.71,15.71,0,0,0,124,15l4.75,1.77L124,18.54a15.66,15.66,0,0,0-9.28,9.27l-1.76,4.77-1.76-4.77a15.76,15.76,0,0,0-9.28-9.27l-4.77-1.75L101.89,15a15.69,15.69,0,0,0,9.27-9.27Z"/><path id="Path_10143" data-name="Path 10143" class="cls-37" d="M225.81,0l.76,2.07a6.86,6.86,0,0,0,4,4l2.06.76-2.06.76a6.83,6.83,0,0,0-4,4l-.76,2.07L225,11.67a6.8,6.8,0,0,0-4-4l-2.07-.77L221,6.11a6.84,6.84,0,0,0,4-4Z"/><path id="Path_10144" data-name="Path 10144" class="cls-37" d="M266,31.2l.76,2.07a6.82,6.82,0,0,0,4,4l2.07.77-2.07.76a6.84,6.84,0,0,0-4,4L266,44.94l-.76-2.07a6.82,6.82,0,0,0-4-4l-2.07-.77,2.07-.76a6.82,6.82,0,0,0,4-4Z"/></g></g></g></g></g></svg>