<svg xmlns="http://www.w3.org/2000/svg" viewBox="0 0 191.33 45.68"><defs><style>.cls-1{fill:#6f2c91;}.cls-2{fill:#8dc63f;}.cls-3,.cls-8{fill:#fcaf17;}.cls-4{fill:#ed1c24;}.cls-5{fill:#f04e45;}.cls-6{fill:#a3238e;}.cls-7{fill:#008fd5;}.cls-8{fill-rule:evenodd;}.cls-9{isolation:isolate;}.cls-10{fill:#212121;stroke:#212121;stroke-miterlimit:10;stroke-width:0.25px;}</style></defs><g id="Layer_2" data-name="Layer 2"><g id="Layer_1-2" data-name="Layer 1"><g id="Layer_2-2" data-name="Layer 2"><g id="Layer_1-3" data-name="Layer 1"><g id="Path_1" data-name="Path 1"><path class="cls-1" d="M31.6,11.8C32.52,11,33.23,2.45,33.43.64c0-.5-.93-.54-1.25-.6S30.89-.1,30.85.42c-.09,1.16.15,11.31.73,11.35"/></g><g id="Path_2" data-name="Path 2"><path class="cls-2" d="M18.23,17.31c-.31-1-6.89-4.93-8.24-5.74-.38-.2-.83.73-1,1s-.65,1.12-.27,1.32c1,.5,9.15,4.07,9.47,3.46"/></g><g id="Path_3" data-name="Path 3"><path class="cls-3" d="M17.42,25.34c-.74-.59-7.4-.89-9-.93-.35,0-.32,1.15-.32,1.32S8.08,27,8.43,27c1.06,0,9-1.15,9-1.68"/></g><g id="Path_4" data-name="Path 4"><path class="cls-4" d="M44.92,19.3c.85.81,8.41-2.67,10-3.23.5-.19.14-1.06,0-1.4s-.41-1.24-1-1c-1.33.57-8.83,4.58-9.06,5.64"/></g><g id="Path_5" data-name="Path 5"><path class="cls-5" d="M46.89,27.26c-.13.86,8,2.19,9,2.32.5.05.56-.91.59-1.24s.17-1.29-.34-1.34c-.94-.1-9.11-.39-9.21.26"/></g><g id="Path_6" data-name="Path 6"><path class="cls-6" d="M40.76,13.52c.55.24,4.58-6.9,5-7.77.2-.44-.73-.8-1-.94s-1.17-.56-1.37-.12c-.39.88-3.24,8.56-2.6,8.83"/></g><g id="Path_7" data-name="Path 7"><path class="cls-7" d="M23.51,11.7c.73-.9-2.64-7.09-3.25-8.23-.3-.53-1.05-.07-1.41.14s-1.14.63-.84,1.14c.59,1,4.39,7.63,5.51,7"/></g><g id="Path_8" data-name="Path 8"><path class="cls-7" d="M37,40.86l-.31.08a31.24,31.24,0,0,1-4.7.73c-5.18.29-7.89-1.33-12.51-3.1a32,32,0,0,0-10-1.88,10.87,10.87,0,0,1-1.89-.08c-.1-.28,1.73-.48,1.84-.54,3.2-.59,7.39.16,10.52,1,4.52,1.36,7,2.67,11.85,2.31a25.21,25.21,0,0,0,4.31-.73l.31-.07A65.08,65.08,0,0,1,47.8,36.77a35.81,35.81,0,0,1,11,1.75c.36.11,3.39,1.09,3.42,1.55a30.07,30.07,0,0,1-3.65-.68,39.6,39.6,0,0,0-10.64-.84A96.89,96.89,0,0,0,37,40.86m-15.74.73,1.17.41c.83.3,1.64.56,2.49.79a18.69,18.69,0,0,0,8.44.57c3.65-.62,6-1.4,9.75-1.23.29,0,2.2.25,2.3.58a17.39,17.39,0,0,1-2.29.19c-3.65.33-5.95,1.31-9.41,2.19a18.41,18.41,0,0,1-9.38,0c-.92-.25-1.79-.53-2.69-.84l-1.16-.4a92.63,92.63,0,0,0-9.75-3.21,26.37,26.37,0,0,0-7.45-1c-.35,0-3.17.32-3.28.22.12-.42,2.78-1,3.18-1.13a23.78,23.78,0,0,1,7.85.2A58.31,58.31,0,0,1,21.26,41.6Z"/></g><g id="Path_9" data-name="Path 9"><path class="cls-8" d="M22.18,29.72A10.5,10.5,0,0,0,26,34a12.15,12.15,0,0,0,2.1.73,12,12,0,0,0,7-.56A9.18,9.18,0,0,0,38.5,32a8.94,8.94,0,0,0,2-3.23A9.53,9.53,0,0,0,41.12,25a10.24,10.24,0,0,0-1-3.88A8.39,8.39,0,0,0,35.78,17a7.88,7.88,0,0,0-2.13-.56,7.42,7.42,0,0,1,2,.73,8.1,8.1,0,0,1,3.85,4.2A9.8,9.8,0,0,1,40.28,25a8.74,8.74,0,0,1-.7,3.38,7.94,7.94,0,0,1-1.9,2.75,8.15,8.15,0,0,1-3,1.83,11.64,11.64,0,0,1-6.29.58,10.56,10.56,0,0,1-5.05-2.6,14.7,14.7,0,0,1-1.16-1.21M31.51,15C19.94,15,18,30.31,28.52,33a10.74,10.74,0,0,0,6-.42,8,8,0,0,0,2.87-1.7,7.68,7.68,0,0,0,1.84-2.63A8.33,8.33,0,0,0,39.91,25a9.14,9.14,0,0,0-.73-3.53,7.64,7.64,0,0,0-6.27-4.78,7,7,0,0,0-2.76.25,6.55,6.55,0,0,0-2.36,1.32h0a6.47,6.47,0,0,0-1.46,2.19,7.06,7.06,0,0,0-.28.89,6.38,6.38,0,0,1,.33-.82,6,6,0,0,1,3.89-3.24,6.73,6.73,0,0,1,2.64-.2,7.29,7.29,0,0,1,5.8,4.63,8.63,8.63,0,0,1,.57,3.3A7.78,7.78,0,0,1,38.61,28a6.91,6.91,0,0,1-1.7,2.35,7.25,7.25,0,0,1-2.6,1.52,10.47,10.47,0,0,1-5.6.44,9.25,9.25,0,0,1-3-1.25,7.35,7.35,0,0,1-1.23-1.2C24,29.17,23,27.5,23.19,26.61a10.37,10.37,0,0,0,1.93,2.63,8.06,8.06,0,0,0,3.81,2.12A9.21,9.21,0,0,0,34.05,31a6.29,6.29,0,0,0,2.32-1.31,6.1,6.1,0,0,0,1.53-2.06A6.73,6.73,0,0,0,38.53,25a7.86,7.86,0,0,0-.5-3,6.45,6.45,0,0,0-3-3.44,6.1,6.1,0,0,0-2.19-.73,5.63,5.63,0,0,0-2.35.11A5.6,5.6,0,0,0,27,20.76a5.94,5.94,0,0,0-.62,2.34,6.55,6.55,0,0,0,.4,2.67,5.16,5.16,0,0,0,2.44,2.8,5.24,5.24,0,0,0,1.8.6A4.71,4.71,0,0,0,32.91,29h0a4.38,4.38,0,0,0,2.78-2.47,4.69,4.69,0,0,0,.37-1.89,5,5,0,0,0-.45-2,3,3,0,0,0-1.18-1.33,2.9,2.9,0,0,1,1.28,1.29,4.88,4.88,0,0,1,.3,4.08,4.79,4.79,0,0,1-2.41,2.6l-.55.2a5.39,5.39,0,0,1-2.15.18A5.74,5.74,0,0,1,26.21,26a7,7,0,0,1-.24-.78,7.33,7.33,0,0,1-.37-2.13,5.92,5.92,0,0,1,0-.94,5.92,5.92,0,0,0,0,.94A7.71,7.71,0,0,0,26.12,26,6,6,0,0,0,31,29.73a5.28,5.28,0,0,0,2.2-.2,5,5,0,0,0,3.17-2.78,5.25,5.25,0,0,0,.48-2.13,6,6,0,0,0-.42-2.3,3.94,3.94,0,0,0-1.88-2,3.75,3.75,0,0,0-1.35-.39,3.84,3.84,0,0,0-1.47.14A3.51,3.51,0,0,0,29.49,22a3.68,3.68,0,0,0-.31,1.46,3.91,3.91,0,0,0,.3,1.51,4,4,0,0,1-.36-1.5A3.88,3.88,0,0,1,29.4,22a3.52,3.52,0,0,1,.85-1.24,3.62,3.62,0,0,1,1.33-.8,3.85,3.85,0,0,1,1.54-.19,3.7,3.7,0,0,1,1.42.38,4.06,4.06,0,0,1,2,2.11,6,6,0,0,1,.5,2.4,5.78,5.78,0,0,1-.47,2.28,5.43,5.43,0,0,1-3.38,3,5.78,5.78,0,0,1-2.34.24,6.38,6.38,0,0,1-5.23-4,7.9,7.9,0,0,1-.56-3.11,7.29,7.29,0,0,1,.65-2.87A6.75,6.75,0,0,1,30,16.55a7.41,7.41,0,0,1,2.6-.29h.33a8,8,0,0,1,2.81.74,8.36,8.36,0,0,1,4.17,4.16A10.14,10.14,0,0,1,40.81,25a9.32,9.32,0,0,1-.59,3.66,8.91,8.91,0,0,1-2,3.1A9.11,9.11,0,0,1,35,33.88a12.65,12.65,0,0,1-6.88.77,13,13,0,0,1-1.94-.54,10.33,10.33,0,1,0,5.33-19.17Z"/></g></g></g><g id="B2B_Gateway" data-name="B2B Gateway" class="cls-9"><g class="cls-9"><path class="cls-10" d="M81.79,23.86a4.63,4.63,0,0,1,.69,2.5,4.72,4.72,0,0,1-.58,2.31,4.25,4.25,0,0,1-1.7,1.69,5.47,5.47,0,0,1-2.74.64H73.3V15.29h3.57a4.77,4.77,0,0,1,2.37.56,3.84,3.84,0,0,1,1.5,1.49,4,4,0,0,1,.5,2A3.55,3.55,0,0,1,80.85,21a3.39,3.39,0,0,1-1.12,1.23A3.89,3.89,0,0,1,81.79,23.86Zm-4.88-2.21A2.46,2.46,0,0,0,78.7,21a2.16,2.16,0,0,0,.65-1.66,2.21,2.21,0,0,0-.65-1.68,2.46,2.46,0,0,0-1.79-.63H75.19v4.6Zm2.83,6.79a3.07,3.07,0,0,0,0-4.18,3.06,3.06,0,0,0-2.24-.81H75.19v5.79H77.5A3.1,3.1,0,0,0,79.74,28.44Z"/><path class="cls-10" d="M92.62,31H83.75V29.44l5-6A9.51,9.51,0,0,0,90,21.56a4,4,0,0,0,.49-1.76,2.27,2.27,0,0,0-.67-1.64,2.38,2.38,0,0,0-1.73-.67,2.44,2.44,0,0,0-1.37.39,2.47,2.47,0,0,0-.9,1,2.93,2.93,0,0,0-.26,1.41L83.75,20a4.34,4.34,0,0,1,.56-2.18,4,4,0,0,1,1.56-1.54,4.49,4.49,0,0,1,2.26-.57,4.77,4.77,0,0,1,2.28.53,3.72,3.72,0,0,1,1.5,1.44,3.93,3.93,0,0,1,.53,2,5.33,5.33,0,0,1-.6,2.36,10.83,10.83,0,0,1-1.53,2.28l-4.09,4.82h6.4Z"/><path class="cls-10" d="M103,23.86a4.62,4.62,0,0,1,.68,2.5,4.82,4.82,0,0,1-.57,2.31,4.25,4.25,0,0,1-1.7,1.69,5.47,5.47,0,0,1-2.74.64H94.51V15.29h3.56a4.79,4.79,0,0,1,2.38.56,3.84,3.84,0,0,1,1.5,1.49,4.15,4.15,0,0,1,.5,2,3.55,3.55,0,0,1-.39,1.67,3.33,3.33,0,0,1-1.13,1.23A3.88,3.88,0,0,1,103,23.86Zm-4.88-2.21A2.46,2.46,0,0,0,99.91,21a2.2,2.2,0,0,0,.65-1.66,2.24,2.24,0,0,0-.65-1.68,2.46,2.46,0,0,0-1.79-.63H96.4v4.6ZM101,28.44a3.07,3.07,0,0,0,0-4.18,3.08,3.08,0,0,0-2.24-.81H96.4v5.79h2.31A3.12,3.12,0,0,0,101,28.44Z"/><path class="cls-10" d="M125.68,23.15a8.34,8.34,0,0,1-1.09,4.33,7.5,7.5,0,0,1-2.87,2.83,7.77,7.77,0,0,1-3.8,1,7.42,7.42,0,0,1-3.89-1.1,8.31,8.31,0,0,1-2.89-3,8,8,0,0,1-1.08-4.07,7.89,7.89,0,0,1,1.1-4.07,8.29,8.29,0,0,1,3-3A7.85,7.85,0,0,1,118.2,15a8.06,8.06,0,0,1,3.37.72,8.16,8.16,0,0,1,2.73,2L122.8,19a6,6,0,0,0-2-1.56,6.07,6.07,0,0,0-5.63.26,6.39,6.39,0,0,0-2.24,8.54A6.36,6.36,0,0,0,115,28.55a5.31,5.31,0,0,0,2.88.84,6,6,0,0,0,2.74-.64,5.71,5.71,0,0,0,2.08-1.86,6.33,6.33,0,0,0,1-2.89h-6.27V22.16h8.18A7.78,7.78,0,0,1,125.68,23.15Z"/><path class="cls-10" d="M137.59,31h-1.76V29.88a4.58,4.58,0,0,1-3.33,1.3,5.27,5.27,0,0,1-2.72-.74,5.61,5.61,0,0,1-2-2,5.47,5.47,0,0,1,0-5.46,5.61,5.61,0,0,1,2-2,5.27,5.27,0,0,1,2.72-.74,4.57,4.57,0,0,1,3.33,1.28v-1.1h1.76Zm-3.12-1.92a4,4,0,0,0,1.36-1V23.41a4.15,4.15,0,0,0-1.36-1.06,4.29,4.29,0,0,0-1.94-.44,3.47,3.47,0,0,0-1.83.52,3.75,3.75,0,0,0-1.32,1.39,3.93,3.93,0,0,0,0,3.8A3.65,3.65,0,0,0,130.7,29a3.45,3.45,0,0,0,1.83.5A4.41,4.41,0,0,0,134.47,29.08Z"/><path class="cls-10" d="M141.15,22.05H139V20.44h2.11V16.59h1.76v3.85h2.75v1.61h-2.75v9h-1.76Z"/><path class="cls-10" d="M156.13,28.58a5,5,0,0,1-2,1.92,5.57,5.57,0,0,1-2.74.68,5.65,5.65,0,0,1-2.8-.7,5.13,5.13,0,0,1-2-1.92,5.3,5.3,0,0,1-.74-2.82,5.88,5.88,0,0,1,.67-2.85,5.05,5.05,0,0,1,7-1.93,4.82,4.82,0,0,1,1.81,1.93,6,6,0,0,1,.66,2.85v.42h-8.29a3.61,3.61,0,0,0,1.17,2.43,3.67,3.67,0,0,0,2.52.91,3.62,3.62,0,0,0,1.86-.46,3.5,3.5,0,0,0,1.31-1.38Zm-7.25-6a3.23,3.23,0,0,0-1.09,2h6.32a3.26,3.26,0,0,0-1.08-2,3.11,3.11,0,0,0-2.07-.72A3.15,3.15,0,0,0,148.88,22.57Z"/><path class="cls-10" d="M170,20.44,167.35,31h-1.63l-2.44-7.41L160.82,31h-1.63l-2.64-10.56h1.85l1.74,7.7,2.48-7.7H164l2.48,7.77,1.83-7.77Z"/><path class="cls-10" d="M181.06,31H179.3V29.88a4.57,4.57,0,0,1-3.32,1.3,5.28,5.28,0,0,1-2.73-.74,5.5,5.5,0,0,1-2-2,5.41,5.41,0,0,1,0-5.46,5.5,5.5,0,0,1,2-2,5.28,5.28,0,0,1,2.73-.74,4.55,4.55,0,0,1,3.32,1.28v-1.1h1.76Zm-3.12-1.92a4,4,0,0,0,1.36-1V23.41a4.15,4.15,0,0,0-1.36-1.06,4.23,4.23,0,0,0-1.94-.44,3.47,3.47,0,0,0-1.83.52,3.75,3.75,0,0,0-1.32,1.39,4,4,0,0,0,0,3.8A3.65,3.65,0,0,0,174.17,29a3.45,3.45,0,0,0,1.83.5A4.35,4.35,0,0,0,177.94,29.08Z"/><path class="cls-10" d="M191.16,20.44l-5.75,15.62h-1.89l2.25-5.81-3.57-9.81h1.92l2.59,7.5,2.55-7.5Z"/></g></g></g></g></svg>