<svg xmlns="http://www.w3.org/2000/svg" viewBox="0 0 84.34 87.89"><defs><style>.cls-1{fill:#091230;}.cls-2{fill:#fff;}</style></defs><g id="Layer_2" data-name="Layer 2"><g id="Layer_1-2" data-name="Layer 1"><g id="Group_11324" data-name="Group 11324"><path id="Path_10331" data-name="Path 10331" class="cls-1" d="M83.87,26.63a.87.87,0,0,0-.86-.86H55.36c-.27-3.14-1.16-6.44-3.4-8.66a9.3,9.3,0,0,0-2.61-1.78,9.2,9.2,0,1,0-14.38,0,9.11,9.11,0,0,0-2.6,1.78c-2.25,2.22-3.13,5.52-3.4,8.66H1.31a.88.88,0,0,0-.87.86h0V61.12a.94.94,0,0,0,.07.3c.2,3.32,1,6.92,3.43,9.28a9.34,9.34,0,0,0,2.62,1.78,9.19,9.19,0,1,0,14.36,0,9,9,0,0,0,2.62-1.78c2.25-2.23,3.14-5.56,3.4-8.71h2c.27,3.16,1.15,6.48,3.4,8.71A9,9,0,0,0,35,72.48a9.2,9.2,0,1,0,14.37,0,9.15,9.15,0,0,0,2.61-1.78c2.26-2.23,3.14-5.55,3.4-8.71h2c.27,3.16,1.15,6.48,3.4,8.71a9,9,0,0,0,2.61,1.78,9.2,9.2,0,1,0,14.37,0,9.15,9.15,0,0,0,2.61-1.78c2.39-2.36,3.24-6,3.44-9.27a.8.8,0,0,0,.06-.3Z"/><rect id="Rectangle_1120" data-name="Rectangle 1120" class="cls-2" x="0.52" y="25.77" width="82.49" height="18.14"/><path id="Path_7298" data-name="Path 7298" class="cls-1" d="M70.58,87.88A9.65,9.65,0,0,1,63.05,72.2a2.58,2.58,0,0,1-.39,0A3.47,3.47,0,0,1,60.47,71c-2-2-3.21-5-3.54-9l-1.57.42A11.27,11.27,0,0,1,52.28,71a9.38,9.38,0,0,1-2.74,1.87c3,2.84,3,7.8.16,11.35a9.61,9.61,0,0,1-7.55,3.63,9.46,9.46,0,0,1-6-2.12A9.66,9.66,0,0,1,34.62,72.2a1.74,1.74,0,0,1-.39,0A3.53,3.53,0,0,1,32.05,71c-2-2-3.21-5-3.54-9L27,62.45A11.34,11.34,0,0,1,23.87,71a9.57,9.57,0,0,1-2.75,1.87c3,2.84,3,7.8.17,11.35a9.65,9.65,0,0,1-15.11-12l0,0a1.74,1.74,0,0,1-.39,0A3.53,3.53,0,0,1,3.64,71C1.52,69,.31,65.73.06,61.44L0,26.64a1.33,1.33,0,0,1,1.31-1.33H29A11.35,11.35,0,0,1,32,16.78a9.66,9.66,0,0,1,2.74-1.87c-3-2.84-3-7.81-.17-11.36A9.66,9.66,0,0,1,49.7,15.61a1.29,1.29,0,0,1,.39,0,3.47,3.47,0,0,1,2.19,1.21c2,2,3.2,5,3.53,9L83,25.31a1.32,1.32,0,0,1,1.32,1.32h0V61.12c-.32,4.6-1.52,7.81-3.63,9.9A9.32,9.32,0,0,1,78,72.9c3,2.84,3,7.8.17,11.34a9.61,9.61,0,0,1-7.55,3.63Zm0-16.69a7,7,0,1,0,7,7h0a7,7,0,0,0-7-7Zm-28.41,0a7,7,0,1,0,7,7h0a7,7,0,0,0-7-7Zm-28.41,0a7,7,0,1,0,7,7h0a7,7,0,0,0-7-7Zm56.82-2.63a9.62,9.62,0,0,1,6.18,2.24,22.28,22.28,0,0,0,2.09-1.65c2.26-2.24,2.79-6,2.83-8.77v-.93a31.79,31.79,0,0,0-.58-5.67c-.09-.45-.73-.83-1.42-.83a1.7,1.7,0,0,0-1.3.6,47.12,47.12,0,0,1,.41,7.6,14.06,14.06,0,0,1-1.08,5.13,1.33,1.33,0,0,1-1.2.77c-1.22-.43-1.5-1.22-1.2-1.88a9.67,9.67,0,0,0,.77-3.23l-11.47.5a15.58,15.58,0,0,1,1.24,2.73,1.34,1.34,0,0,1-.61,1.7,4.9,4.9,0,0,1-.54,0,1.21,1.21,0,0,1-1.24-.62,13.89,13.89,0,0,1-1.08-5.12,30.36,30.36,0,0,1,.51-7.12c-.36-.82-.72-1-1.12-1.06h-.08c-.93,0-1.54.36-1.63.82a32.42,32.42,0,0,0-.56,7.29c.2,3.69,1.15,6.4,2.84,8.06a7,7,0,0,0,2.52,1.57,7.92,7.92,0,0,1,5.71-2.17Zm-28.41,0a9.59,9.59,0,0,1,6.17,2.24,22.28,22.28,0,0,0,2.09-1.65c1.69-1.67,2.64-4.38,2.83-8a32.15,32.15,0,0,0-.57-7.33,1.41,1.41,0,0,0-1.43-.84,1.62,1.62,0,0,0-1.29.6,47.11,47.11,0,0,1,.4,7.6,14.4,14.4,0,0,1-1.07,5.14,1.35,1.35,0,0,1-1.2.76c-1.13-.38-1.47-1.31-1.2-1.87a10.3,10.3,0,0,0,.77-3.24l-11.47.51a14.81,14.81,0,0,1,1.23,2.72,1.47,1.47,0,0,1-.64,1.76,3.11,3.11,0,0,1-.43,0A1.28,1.28,0,0,1,35,66.28,14,14,0,0,1,34,61.17a30.82,30.82,0,0,1,.51-7.11c-.36-.82-.72-1-1.12-1.06h-.08c-.94,0-1.54.36-1.62.81a31.29,31.29,0,0,0-.56,7.29c.19,3.7,1.14,6.4,2.83,8.06a7,7,0,0,0,2.52,1.57,8,8,0,0,1,5.73-2.17Zm-28.41,0a9.64,9.64,0,0,1,6.18,2.24A22.15,22.15,0,0,0,22,69.15c1.69-1.67,2.65-4.38,2.83-8a31.67,31.67,0,0,0-.55-7.34A1.43,1.43,0,0,0,22.86,53a1.68,1.68,0,0,0-1.29.6,46.24,46.24,0,0,1,.4,7.62,14.1,14.1,0,0,1-1.08,5.12A1.35,1.35,0,0,1,19.7,67c-.83-.23-1.08-.48-1.22-.81L18.41,66l.07-.83a10.1,10.1,0,0,0,.78-3.25L7.8,62.45A15.6,15.6,0,0,1,9,65.18l.07.16,0,.83a1.33,1.33,0,0,1-.69.76l-.44,0a1.27,1.27,0,0,1-1.31-.67,14.26,14.26,0,0,1-1.08-5.11,30.82,30.82,0,0,1,.52-7.11c-.36-.83-.73-1-1.13-1.07H4.86c-.94,0-1.53.36-1.62.82a33.06,33.06,0,0,0-.59,5.34v1.28c.08,4,1.05,6.94,2.86,8.73A7.16,7.16,0,0,0,8,70.72a8,8,0,0,1,5.71-2.16Zm37-18.2c2.53,0,4.16,1.23,4.52,2.92a34.2,34.2,0,0,1,.62,7l1.39-.47a15.46,15.46,0,0,1,.16-6.53,4,4,0,0,1,4-3l.64,0A4.06,4.06,0,0,1,64.91,52a3.24,3.24,0,0,1,.56,2.56,28.57,28.57,0,0,0-.5,5.7l11.68-.45c-.43-1.45-.6-3.37-1-5.25A3.24,3.24,0,0,1,76.25,52a4.14,4.14,0,0,1,2.81-1.65h.3a5.39,5.39,0,0,1,2.34.44V27.5L55.46,28a15.91,15.91,0,0,1-.16,6.59,4,4,0,0,1-4,3,4.54,4.54,0,0,1-3.46-1.68,3.32,3.32,0,0,1-.56-2.59,28.3,28.3,0,0,0,.49-5.74L36.11,28c.43,1.49.6,3.42,1,5.29a3.27,3.27,0,0,1-.56,2.57,4.15,4.15,0,0,1-2.8,1.65h-.14c-2.54,0-4.17-1.24-4.52-2.92a35.52,35.52,0,0,1-.62-7.06L2.18,28,2.62,50.8A4.4,4.4,0,0,1,8.09,52a3.27,3.27,0,0,1,.56,2.57,28.6,28.6,0,0,0-.5,5.69l11.68-.45c-.44-1.47-.6-3.39-1-5.25A3.29,3.29,0,0,1,19.42,52a4.17,4.17,0,0,1,2.82-1.65h.13c2.53,0,4.17,1.24,4.51,2.92a35.09,35.09,0,0,1,.62,7l1.39-.47a15.46,15.46,0,0,1,.16-6.53,4,4,0,0,1,4-3A4.56,4.56,0,0,1,36.51,52a3.33,3.33,0,0,1,.55,2.58,27.71,27.71,0,0,0-.49,5.68l11.66-.45c-.43-1.45-.6-3.37-.95-5.25A3.21,3.21,0,0,1,47.83,52a4.17,4.17,0,0,1,2.81-1.65ZM36,17a25.65,25.65,0,0,0-2.09,1.65c-1.68,1.65-2.63,4.34-2.8,8A31.93,31.93,0,0,0,31.65,34a1.39,1.39,0,0,0,1.41.84,1.66,1.66,0,0,0,1.3-.59,47.67,47.67,0,0,1-.4-7.65A14.15,14.15,0,0,1,35,21.53a1.31,1.31,0,0,1,1.2-.77c1.21.44,1.5,1.22,1.2,1.88a10,10,0,0,0-.77,3.18l11.46-.5a15.51,15.51,0,0,1-1.24-2.68,1.33,1.33,0,0,1,.64-1.75l.56-.13a1.35,1.35,0,0,1,1.2.77,14,14,0,0,1,1.07,5.08,30.53,30.53,0,0,1-.51,7.14c.35.84.73,1,1.12,1.09h.1c1,0,1.52-.36,1.62-.82a32.27,32.27,0,0,0,.55-7.34c-.19-3.66-1.14-6.35-2.82-8a7,7,0,0,0-2.53-1.57,8,8,0,0,1-5.73,2.16A9.69,9.69,0,0,1,36,17ZM42.17,2.59a7,7,0,1,0,7,7h0a7,7,0,0,0-7-7Z"/><path id="Path_7299" data-name="Path 7299" class="cls-1" d="M83.87,26.63a.87.87,0,0,0-.86-.86H55.36c-.27-3.14-1.16-6.44-3.4-8.66a9.3,9.3,0,0,0-2.61-1.78,9.2,9.2,0,1,0-14.38,0,9.11,9.11,0,0,0-2.6,1.78c-2.25,2.22-3.13,5.52-3.4,8.66H1.31a.88.88,0,0,0-.87.86h0V61.12a.94.94,0,0,0,.07.3c.2,3.32,1,6.92,3.43,9.28a9.34,9.34,0,0,0,2.62,1.78,9.19,9.19,0,1,0,14.36,0,9,9,0,0,0,2.62-1.78c2.25-2.23,3.14-5.56,3.4-8.71h2c.27,3.16,1.15,6.48,3.4,8.71A9,9,0,0,0,35,72.48a9.2,9.2,0,1,0,14.37,0,9.15,9.15,0,0,0,2.61-1.78c2.26-2.23,3.14-5.55,3.4-8.71h2c.27,3.16,1.15,6.48,3.4,8.71a9,9,0,0,0,2.61,1.78,9.2,9.2,0,1,0,14.37,0,9.15,9.15,0,0,0,2.61-1.78c2.39-2.36,3.24-6,3.44-9.27a.8.8,0,0,0,.06-.3ZM42.17,2.12A7.48,7.48,0,1,1,34.69,9.6h0A7.48,7.48,0,0,1,42.17,2.12ZM33.59,18.34a7.36,7.36,0,0,1,2.7-1.68,9.17,9.17,0,0,0,11.77,0,7.45,7.45,0,0,1,2.7,1.68c2.07,2.05,2.79,5.27,3,8.28v0a32.63,32.63,0,0,1-.56,7.45,1.9,1.9,0,0,1-2.21,1.19,1.94,1.94,0,0,1-1.32-.75,1.1,1.1,0,0,1-.2-.88,30.17,30.17,0,0,0,.5-7h0a13.63,13.63,0,0,0-1-4.92.86.86,0,0,0-1.56.73,10.62,10.62,0,0,1,.81,3.33H36.21A10.56,10.56,0,0,1,37,22.45a.86.86,0,0,0-1.56-.73,13.69,13.69,0,0,0-1,4.89v0a30.17,30.17,0,0,0,.5,7,1.12,1.12,0,0,1-.19.87,1.94,1.94,0,0,1-1.33.75,1.9,1.9,0,0,1-2.2-1.19,31.41,31.41,0,0,1-.56-7.43v-.06c.15-3,.87-6.23,2.94-8.27ZM13.76,85.69a7.48,7.48,0,1,1,7.47-7.48h0a7.48,7.48,0,0,1-7.47,7.48Zm8.59-16.22a7.31,7.31,0,0,1-2.7,1.68,9.17,9.17,0,0,0-11.77,0,7.13,7.13,0,0,1-2.7-1.67c-2.26-2.23-2.92-5.83-3-9.05v-1.3a31.87,31.87,0,0,1,.59-5.42A1.91,1.91,0,0,1,5,52.53a1.89,1.89,0,0,1,1.32.74,1.1,1.1,0,0,1,.2.88,29.7,29.7,0,0,0-.5,7H6a14,14,0,0,0,1,5,.87.87,0,0,0,1.57-.73h0A10.33,10.33,0,0,1,7.8,62H19.72a10.59,10.59,0,0,1-.81,3.37.86.86,0,0,0,1.56.73,13.79,13.79,0,0,0,1-5h0a29.9,29.9,0,0,0-.49-7,1.14,1.14,0,0,1,.19-.88,2,2,0,0,1,1.33-.74,1.92,1.92,0,0,1,2.21,1.18,32.41,32.41,0,0,1,.56,7.42v0c-.15,3-.87,6.27-3,8.33ZM42.17,85.69a7.48,7.48,0,1,1,7.48-7.48h0a7.49,7.49,0,0,1-7.48,7.48Zm8.59-16.22a7.31,7.31,0,0,1-2.7,1.68,9.17,9.17,0,0,0-11.77,0,7.29,7.29,0,0,1-2.7-1.67c-2.08-2.07-2.8-5.31-3-8.33v0a32.24,32.24,0,0,1,.56-7.4,1.91,1.91,0,0,1,2.2-1.19,1.94,1.94,0,0,1,1.33.75,1.09,1.09,0,0,1,.2.87,30.34,30.34,0,0,0-.51,7h0a14,14,0,0,0,1,4.94A.86.86,0,1,0,37,65.35h0A10.88,10.88,0,0,1,36.2,62H48.13a10.59,10.59,0,0,1-.81,3.37.86.86,0,1,0,1.56.72,13.74,13.74,0,0,0,1-4.94v0a29.19,29.19,0,0,0-.51-7,1.14,1.14,0,0,1,.2-.88,2,2,0,0,1,1.33-.74,1.91,1.91,0,0,1,2.21,1.18,32,32,0,0,1,.57,7.43h0c-.16,3-.87,6.29-3,8.35Zm4.69-9.2a33.93,33.93,0,0,0-.61-6.9,3.6,3.6,0,0,0-4.14-2.56,3.73,3.73,0,0,0-2.49,1.46,2.85,2.85,0,0,0-.48,2.21,27.46,27.46,0,0,1,.5,5.79H36.11a28.86,28.86,0,0,1,.5-5.79,2.85,2.85,0,0,0-.48-2.21,3.69,3.69,0,0,0-2.5-1.46,3.62,3.62,0,0,0-4.14,2.56,33.93,33.93,0,0,0-.61,6.9H27a33.93,33.93,0,0,0-.61-6.9,3.61,3.61,0,0,0-4.14-2.56,3.68,3.68,0,0,0-2.48,1.46,2.86,2.86,0,0,0-.49,2.21,28.87,28.87,0,0,1,.52,5.79H7.69a28.86,28.86,0,0,1,.5-5.79,2.77,2.77,0,0,0-.48-2.21,3.69,3.69,0,0,0-2.5-1.46,4,4,0,0,0-3,.82V27.5h26.7a33.81,33.81,0,0,0,.61,7A3.49,3.49,0,0,0,33,37.05a4,4,0,0,0,.6,0,3.65,3.65,0,0,0,2.48-1.46,2.86,2.86,0,0,0,.49-2.21,27.89,27.89,0,0,1-.52-5.84H48.22a27.88,27.88,0,0,1-.5,5.84,2.81,2.81,0,0,0,.49,2.21A3.65,3.65,0,0,0,50.69,37a4,4,0,0,0,.6,0,3.5,3.5,0,0,0,3.55-2.59,33.8,33.8,0,0,0,.6-7H82.15V51.63a4,4,0,0,0-3.05-.82,3.71,3.71,0,0,0-2.5,1.46,2.89,2.89,0,0,0-.48,2.21,28.15,28.15,0,0,1,.51,5.79H64.51a28.86,28.86,0,0,1,.5-5.79,2.85,2.85,0,0,0-.48-2.21A3.73,3.73,0,0,0,62,50.81a3.61,3.61,0,0,0-4.14,2.56,33.93,33.93,0,0,0-.61,6.9ZM70.58,85.69a7.48,7.48,0,1,1,7.47-7.48h0a7.47,7.47,0,0,1-7.47,7.48Zm8.59-16.22a7.31,7.31,0,0,1-2.7,1.68,9.17,9.17,0,0,0-11.77,0A7.29,7.29,0,0,1,62,69.48c-2.08-2.07-2.81-5.31-3-8.33v0a32.8,32.8,0,0,1,.56-7.4,2.13,2.13,0,0,1,2.82-1,2.16,2.16,0,0,1,.72.55,1.14,1.14,0,0,1,.2.89,30.25,30.25,0,0,0-.51,7h0a14,14,0,0,0,1,4.94.86.86,0,0,0,1.14.39h0a.85.85,0,0,0,.41-1.1A10.71,10.71,0,0,1,64.61,62H76.54a10.73,10.73,0,0,1-.82,3.38.86.86,0,0,0,1.57.72h0a13.79,13.79,0,0,0,1-4.95h0a30.34,30.34,0,0,0-.51-7,1.1,1.1,0,0,1,.2-.88A2.12,2.12,0,0,1,81,53a2.3,2.3,0,0,1,.56.72,33.67,33.67,0,0,1,.59,5.75v.94c-.07,3.23-.72,6.85-3,9.08Z"/></g></g></g></svg>