<svg xmlns="http://www.w3.org/2000/svg" xmlns:xlink="http://www.w3.org/1999/xlink" viewBox="0 0 47.69 39.66"><defs><style>.cls-1,.cls-6{fill:none;}.cls-2{fill:#6f2c91;}.cls-3{fill:#15173f;isolation:isolate;}.cls-3,.cls-4{opacity:0.3;}.cls-5{clip-path:url(#clip-path);}.cls-6{stroke:#fff;stroke-linecap:round;stroke-linejoin:round;stroke-width:3px;}.cls-7{clip-path:url(#clip-path-2);}</style><clipPath id="clip-path"><rect class="cls-1" x="37.85" y="5.43" width="1.59" height="33.52"/></clipPath><clipPath id="clip-path-2"><rect class="cls-1" x="8.25" y="5.43" width="1.59" height="33.52"/></clipPath></defs><g id="Layer_2" data-name="Layer 2"><g id="Layer_1-2" data-name="Layer 1"><g id="Group_11340" data-name="Group 11340"><rect id="Rectangle_1116" data-name="Rectangle 1116" class="cls-2" y="6.22" width="47.69" height="31.93" rx="0.66"/><path id="Path_7290" data-name="Path 7290" class="cls-3" d="M45.23,35.25H2.47A2.49,2.49,0,0,1,0,32.76v2.91a2.47,2.47,0,0,0,2.47,2.48H45.23a2.46,2.46,0,0,0,2.46-2.48h0V32.76a2.47,2.47,0,0,1-2.46,2.49"/><path id="Path_7292" data-name="Path 7292" class="cls-3" d="M28.45,0H19.24a2.38,2.38,0,0,0-2.38,2.39h0V6.22h14V2.39A2.39,2.39,0,0,0,28.46,0Z"/><g id="Group_10729" data-name="Group 10729" class="cls-4"><g id="Group_10728" data-name="Group 10728"><g class="cls-5"><g id="Group_10727" data-name="Group 10727"><line id="Line_170" data-name="Line 170" class="cls-6" x1="38.65" y1="38.16" x2="38.65" y2="6.22"/></g></g></g></g><g id="Group_10732" data-name="Group 10732" class="cls-4"><g id="Group_10731" data-name="Group 10731"><g class="cls-7"><g id="Group_10730" data-name="Group 10730"><line id="Line_171" data-name="Line 171" class="cls-6" x1="9.05" y1="6.22" x2="9.05" y2="38.16"/></g></g></g></g></g></g></g></svg>