<svg xmlns="http://www.w3.org/2000/svg" width="152" height="152" viewBox="0 0 152 152"><g transform="translate(-885 -234)"><circle cx="76" cy="76" r="76" transform="translate(885 234)" fill="rgba(252,175,23,0.15)"/><g transform="translate(654.941 147.617)"><g transform="translate(272.442 127.72)"><g transform="translate(0 0)"><g transform="translate(0.001 25.179)"><path d="M272.938,213.66l64.93-.472,1.81,44.144-67.233-.623Z" transform="translate(-272.445 -213.189)" fill="#fcaf17"/></g><g transform="translate(0.494)"><path d="M274.235,147.371l30.73-24.865a3.529,3.529,0,0,1,4.457.014L339.165,146.9" transform="translate(-274.235 -121.72)" fill="#fcaf17"/></g><g transform="translate(0.494)" opacity="0.3"><path d="M274.235,147.371l30.73-24.865a3.529,3.529,0,0,1,4.457.014L339.165,146.9" transform="translate(-274.235 -121.72)"/></g><g transform="translate(0 43.624)"><path d="M272.443,305.268c-.081-.076,5.117-5.751,11.609-12.675s11.822-12.477,11.9-12.4-5.116,5.75-11.61,12.676S272.523,305.344,272.443,305.268Z" transform="translate(-272.442 -280.191)" fill="#263238"/></g><g transform="translate(44.921 44.217)"><path d="M457.939,307.453c-.083.074-5.145-5.487-11.305-12.419s-11.089-12.614-11.006-12.687,5.144,5.486,11.307,12.42S458.021,307.379,457.939,307.453Z" transform="translate(-435.626 -282.346)" fill="#263238"/></g><g transform="translate(0.494 25.179)" opacity="0.5"><path d="M339.165,213.189l-32.6,26.046L274.235,213.66" transform="translate(-274.235 -213.189)"/></g><g transform="translate(3.616 7.039)"><g transform="translate(0.046 0.072)"><path d="M285.847,168.506l-.1-20.279,56.855-.672.641,21.337L314.9,191.328Z" transform="translate(-285.745 -147.554)" fill="#fafafa"/></g><path d="M285.725,168.316s.184.138.533.409l1.542,1.2,5.867,4.589,21.146,16.577h-.073l28.334-22.446-.027.058c-.122-4.071-.251-8.341-.382-12.687-.088-2.925-.175-5.816-.259-8.65l.072.069-56.855.647.045-.046c.022,6.381.04,11.447.052,14.921,0,1.737.006,3.075.008,3.981,0,.451,0,.795,0,1.028s0,.35,0,.35,0-.115-.007-.345-.006-.574-.011-1.023c-.007-.905-.018-2.241-.032-3.975-.023-3.477-.056-8.549-.1-14.937v-.046h.046l56.854-.7h.07l0,.07c.085,2.834.172,5.725.26,8.65l.38,12.687v.036l-.028.022-28.349,22.427-.037.029-.036-.029-21.13-16.633-5.842-4.609-1.527-1.21C285.9,168.458,285.725,168.316,285.725,168.316Z" transform="translate(-285.577 -147.292)" fill="#263238"/></g></g></g></g><g transform="translate(-33 -45)"><g transform="translate(985 342)" fill="#fff" stroke="#383838" stroke-width="0.5"><circle cx="8" cy="8" r="8" stroke="none"/><circle cx="8" cy="8" r="7.75" fill="none"/></g><text transform="translate(986 340)" fill="#fcaf17" font-size="14" font-family="JTEnergy-Bold, JT Energy" font-weight="700" letter-spacing="0.02em"><tspan x="0" y="14">@</tspan></text></g></g></svg>