<svg xmlns="http://www.w3.org/2000/svg" viewBox="0 0 51.82 41.9"><defs><style>.cls-1,.cls-2,.cls-5{fill:none;stroke-linecap:round;stroke-linejoin:round;}.cls-1,.cls-2{stroke:#6f2c91;}.cls-1{stroke-width:3px;}.cls-2{stroke-width:2px;}.cls-3,.cls-4{fill:#6f2c91;}.cls-4{stroke:#fff;stroke-miterlimit:10;}.cls-5{stroke:#008fd5;stroke-width:6.9px;}.cls-6{fill:#fff;}</style></defs><g id="Layer_2" data-name="Layer 2"><g id="Layer_1-2" data-name="Layer 1"><g id="Group_11339" data-name="Group 11339"><path id="Path_10328" data-name="Path 10328" class="cls-1" d="M20.28,40.4h24a6.89,6.89,0,0,0,6-3.75h0"/><line id="Line_191" data-name="Line 191" class="cls-1" x1="42.81" y1="40.4" x2="42.81" y2="32.89"/><line id="Line_192" data-name="Line 192" class="cls-1" x1="29.67" y1="40.4" x2="29.67" y2="31.01"/><line id="Line_193" data-name="Line 193" class="cls-2" x1="3.53" y1="1.45" x2="48.09" y2="1.45"/><line id="Line_194" data-name="Line 194" class="cls-1" x1="25.91" y1="10.89" x2="25.91" y2="1.5"/><path id="Path_10329" data-name="Path 10329" class="cls-3" d="M10.32,17.46l10,3h0a13,13,0,0,0,12.95,13H50.32A22.59,22.59,0,0,0,27.79,10.89H12.39"/><path id="Path_10330" data-name="Path 10330" class="cls-4" d="M31.79,11.18s-2.67,10.51,1.13,14.68c2.5,2.75,5.25,3.71,16.54,1.41C45.66,13,31.79,11.18,31.79,11.18Z"/><circle id="Ellipse_269" data-name="Ellipse 269" class="cls-1" cx="7.13" cy="12.77" r="5.63"/><line id="Line_195" data-name="Line 195" class="cls-5" x1="7.13" y1="12.77" x2="7.13" y2="12.77"/><ellipse id="Ellipse_274" data-name="Ellipse 274" class="cls-6" cx="7.41" cy="12.28" rx="5.5" ry="5"/></g></g></g></svg>