<svg xmlns="http://www.w3.org/2000/svg" viewBox="0 0 100.58 82.3"><defs><style>.cls-1,.cls-2,.cls-5,.cls-6{fill:none;stroke-linecap:round;stroke-linejoin:round;}.cls-1,.cls-6{stroke:#008fd5;}.cls-1,.cls-2{stroke-width:8px;}.cls-2,.cls-5{stroke:#008bd0;}.cls-3{fill:#008bd0;}.cls-4{fill:#008fd5;stroke:#fff;stroke-miterlimit:10;stroke-width:2px;}.cls-5,.cls-6{stroke-width:6.9px;}</style></defs><g id="Layer_2" data-name="Layer 2"><g id="Layer_1-2" data-name="Layer 1"><g id="Group_11323" data-name="Group 11323"><path id="Path_10328" data-name="Path 10328" class="cls-1" d="M39.27,78.29H85.12a13.14,13.14,0,0,0,11.46-7.16h0"/><line id="Line_191" data-name="Line 191" class="cls-1" x1="82.25" y1="78.29" x2="82.25" y2="63.97"/><line id="Line_192" data-name="Line 192" class="cls-1" x1="57.18" y1="78.3" x2="57.18" y2="60.39"/><line id="Line_193" data-name="Line 193" class="cls-2" x1="7.31" y1="4" x2="92.31" y2="4"/><line id="Line_194" data-name="Line 194" class="cls-2" x1="50.01" y1="22" x2="50.01" y2="4.09"/><path id="Path_10329" data-name="Path 10329" class="cls-3" d="M20.28,34.53l19,5.73h0A24.76,24.76,0,0,0,64,65h32.6a43.11,43.11,0,0,0-43-43H24.22"/><path id="Path_10330" data-name="Path 10330" class="cls-4" d="M61.23,22.55s-5.09,20.06,2.16,28c4.78,5.23,10,7.08,31.54,2.68C87.68,26.07,61.23,22.55,61.23,22.55Z"/><circle id="Ellipse_269" data-name="Ellipse 269" class="cls-5" cx="14.2" cy="25.58" r="10.75"/><line id="Line_195" data-name="Line 195" class="cls-6" x1="14.2" y1="25.58" x2="14.2" y2="25.58"/></g></g></g></svg>